<svg xmlns="http://www.w3.org/2000/svg" viewBox="0 0 32 32"><style>.b{fill:#0891b2}.g{fill:#4d7c0f}@media (prefers-color-scheme:dark){.b{fill:#0aaed7}.g{fill:#65a414}}</style><path d="M28.47 17.03a.33.33 0 0 0 0 .6 3.67 3.67 0 0 1 0 6.73.33.33 0 0 0 0 .61 3.67 3.67 0 1 1-4.83 4.83.33.33 0 0 0-.61 0 3.67 3.67 0 0 1-6.73 0 .33.33 0 0 0-.6 0 3.67 3.67 0 0 1-6.73 0 .33.33 0 0 0-.6 0 3.67 3.67 0 1 1-4.84-4.83.33.33 0 0 0 0-.6 3.67 3.67 0 0 1 0-6.73.33.33 0 0 0 0-.61 3.67 3.67 0 1 1 4.83-4.83.33.33 0 0 0 .61 0 3.67 3.67 0 0 1 6.72 0 .33.33 0 0 0 .62 0 3.67 3.67 0 0 1 6.72 0 .33.33 0 0 0 .6 0 3.67 3.67 0 1 1 4.84 4.83m-19.5-1.9a.33.33 0 0 0-.6 0 3.68 3.68 0 0 1-1.9 1.9.33.33 0 0 0 0 .6 3.68 3.68 0 0 1 1.9 1.9.33.33 0 0 0 .6 0 3.68 3.68 0 0 1 1.9-1.9.33.33 0 0 0 0-.6 3.68 3.68 0 0 1-1.9-1.9m14.67 7.34a.33.33 0 0 0-.61 0 3.68 3.68 0 0 1-1.9 1.9.33.33 0 0 0 0 .6 3.68 3.68 0 0 1 1.9 1.9.33.33 0 0 0 .6 0 3.68 3.68 0 0 1 1.9-1.9.33.33 0 0 0 0-.6 3.68 3.68 0 0 1-1.9-1.9Zm0-7.34a.33.33 0 0 0-.61 0 3.68 3.68 0 0 1-1.9 1.9.33.33 0 0 0 0 .6 3.68 3.68 0 0 1 1.9 1.9.33.33 0 0 0 .6 0 3.68 3.68 0 0 1 1.9-1.9.33.33 0 0 0 0-.6 3.68 3.68 0 0 1-1.9-1.9Zm-7.34 0a.33.33 0 0 0-.6 0 3.7 3.7 0 0 1-1.9 1.9.33.33 0 0 0 0 .6 3.7 3.7 0 0 1 1.9 1.9.33.33 0 0 0 .6 0 3.7 3.7 0 0 1 1.9-1.9.33.33 0 0 0 0-.6 3.7 3.7 0 0 1-1.9-1.9m-7.33 7.34a.33.33 0 0 0-.6 0 3.68 3.68 0 0 1-1.9 1.9.33.33 0 0 0 0 .6 3.68 3.68 0 0 1 1.9 1.9.33.33 0 0 0 .6 0 3.68 3.68 0 0 1 1.9-1.9.33.33 0 0 0 0-.6 3.68 3.68 0 0 1-1.9-1.9m7.33 0a.33.33 0 0 0-.6 0 3.7 3.7 0 0 1-1.9 1.9.33.33 0 0 0 0 .6 3.7 3.7 0 0 1 1.9 1.9.33.33 0 0 0 .6 0 3.7 3.7 0 0 1 1.9-1.9.33.33 0 0 0 0-.6 3.7 3.7 0 0 1-1.9-1.9" class="g"/><path d="M23.64 5.13a.33.33 0 0 0-.61 0 3.67 3.67 0 0 1-6.73 0 .33.33 0 0 0-.6 0 3.67 3.67 0 0 1-6.73 0 .33.33 0 0 0-.6 0 3.67 3.67 0 1 1 0-2.93.33.33 0 0 0 .6 0 3.67 3.67 0 0 1 6.72 0 .33.33 0 0 0 .62 0 3.67 3.67 0 0 1 6.72 0 .33.33 0 0 0 .6 0 3.67 3.67 0 1 1 0 2.93Z" class="b"/></svg>