<svg fill="none" height="148" viewBox="0 0 268 148" width="268" xmlns="http://www.w3.org/2000/svg" xmlns:xlink="http://www.w3.org/1999/xlink"><filter id="a" color-interpolation-filters="sRGB" filterUnits="userSpaceOnUse" height="148" width="268" x="0" y="0"><feFlood flood-opacity="0" result="BackgroundImageFix"/><feColorMatrix in="SourceAlpha" result="hardAlpha" type="matrix" values="0 0 0 0 0 0 0 0 0 0 0 0 0 0 0 0 0 0 127 0"/><feOffset dy="1"/><feGaussianBlur stdDeviation="1"/><feColorMatrix type="matrix" values="0 0 0 0 0 0 0 0 0 0 0 0 0 0 0 0 0 0 0.15 0"/><feBlend in2="BackgroundImageFix" mode="normal" result="effect1_dropShadow_392_1240"/><feBlend in="SourceGraphic" in2="effect1_dropShadow_392_1240" mode="normal" result="shape"/></filter><filter id="b" color-interpolation-filters="sRGB" filterUnits="userSpaceOnUse" height="80.9775" width="80.9775" x="70.52" y="47.9414"><feFlood flood-opacity="0" result="BackgroundImageFix"/><feColorMatrix in="SourceAlpha" result="hardAlpha" type="matrix" values="0 0 0 0 0 0 0 0 0 0 0 0 0 0 0 0 0 0 127 0"/><feOffset dx="2" dy="2"/><feGaussianBlur stdDeviation="2.5"/><feComposite in2="hardAlpha" operator="out"/><feColorMatrix type="matrix" values="0 0 0 0 0 0 0 0 0 0 0 0 0 0 0 0 0 0 0.2 0"/><feBlend in2="BackgroundImageFix" mode="normal" result="effect1_dropShadow_392_1240"/><feBlend in="SourceGraphic" in2="effect1_dropShadow_392_1240" mode="normal" result="shape"/></filter><linearGradient id="c"><stop offset="0" stop-color="#dbdbdb"/><stop offset=".543618" stop-color="#adadad"/><stop offset="1" stop-color="#a7a7a7"/></linearGradient><linearGradient id="d" gradientUnits="userSpaceOnUse" x1="128.45" x2="128.45" xlink:href="#c" y1="7" y2="19"/><linearGradient id="e"><stop offset="0" stop-color="#fff"/><stop offset=".721772" stop-color="#fff" stop-opacity="0"/></linearGradient><linearGradient id="f" gradientUnits="userSpaceOnUse" x1="25.7703" x2="224.03" xlink:href="#e" y1="-3.99999" y2="44.1611"/><linearGradient id="g"><stop offset="0" stop-color="#4099ff"/><stop offset=".543618" stop-color="#0366d6"/><stop offset="1" stop-color="#0754aa"/></linearGradient><linearGradient id="h" gradientUnits="userSpaceOnUse" x1="33.2345" x2="33.2344" xlink:href="#g" y1="7" y2="19"/><linearGradient id="i" gradientUnits="userSpaceOnUse" x1="19.0718" x2="47.9992" xlink:href="#e" y1="-3.99999" y2="-3.03075"/><linearGradient id="j" gradientUnits="userSpaceOnUse" x1="216.469" x2="216.469" xlink:href="#g" y1="7" y2="19"/><linearGradient id="k" gradientUnits="userSpaceOnUse" x1="188.144" x2="245.804" xlink:href="#e" y1="-3.99999" y2="-.136013"/><linearGradient id="l" gradientUnits="userSpaceOnUse" x1="117.024" x2="117.024" xlink:href="#c" y1="27" y2="39"/><linearGradient id="m" gradientUnits="userSpaceOnUse" x1="24.9665" x2="204.681" xlink:href="#e" y1="16" y2="55.14"/><linearGradient id="n" gradientUnits="userSpaceOnUse" x1="83.2345" x2="83.2344" xlink:href="#g" y1="27" y2="39"/><linearGradient id="o" gradientUnits="userSpaceOnUse" x1="69.0718" x2="97.9992" xlink:href="#e" y1="16" y2="16.9693"/><linearGradient id="p" gradientUnits="userSpaceOnUse" x1="128.45" x2="128.45" xlink:href="#c" y1="47" y2="59"/><linearGradient id="q" gradientUnits="userSpaceOnUse" x1="25.7703" x2="224.03" xlink:href="#e" y1="36" y2="84.1611"/><linearGradient id="r" gradientUnits="userSpaceOnUse" x1="109.407" x2="109.407" xlink:href="#c" y1="67" y2="79"/><linearGradient id="s" gradientUnits="userSpaceOnUse" x1="24.4306" x2="191.44" xlink:href="#e" y1="56" y2="89.575"/><linearGradient id="t" gradientUnits="userSpaceOnUse" x1="132.278" x2="132.277" xlink:href="#g" y1="67" y2="79"/><linearGradient id="u" gradientUnits="userSpaceOnUse" x1="100.411" x2="165.203" xlink:href="#e" y1="56" y2="60.8846"/><linearGradient id="v" gradientUnits="userSpaceOnUse" x1="90.3636" x2="90.3636" xlink:href="#c" y1="87" y2="99"/><linearGradient id="w" gradientUnits="userSpaceOnUse" x1="23.0909" x2="157.252" xlink:href="#e" y1="76" y2="97.3523"/><linearGradient id="x" gradientUnits="userSpaceOnUse" x1="109.407" x2="109.407" xlink:href="#c" y1="107" y2="119"/><linearGradient id="y" gradientUnits="userSpaceOnUse" x1="24.4306" x2="191.44" xlink:href="#e" y1="96" y2="129.575"/><linearGradient id="z" gradientUnits="userSpaceOnUse" x1="60.3708" x2="60.3708" xlink:href="#g" y1="107" y2="119"/><linearGradient id="A" gradientUnits="userSpaceOnUse" x1="20.9809" x2="100.832" xlink:href="#e" y1="96" y2="103.441"/><linearGradient id="B" gradientUnits="userSpaceOnUse" x1="128.45" x2="128.45" xlink:href="#c" y1="127" y2="139"/><linearGradient id="C" gradientUnits="userSpaceOnUse" x1="25.7703" x2="224.03" xlink:href="#e" y1="116" y2="164.161"/><linearGradient id="D" gradientUnits="userSpaceOnUse" x1="172.278" x2="172.277" xlink:href="#g" y1="127" y2="139"/><linearGradient id="E" gradientUnits="userSpaceOnUse" x1="140.411" x2="205.203" xlink:href="#e" y1="116" y2="120.885"/><linearGradient id="F" gradientUnits="userSpaceOnUse" x1="112.854" x2="112.854" xlink:href="#c" y1="63" y2="83"/><linearGradient id="G" gradientUnits="userSpaceOnUse" x1="100.904" x2="125.332" xlink:href="#e" y1="44.6667" y2="45.081"/><linearGradient id="H" gradientUnits="userSpaceOnUse" x1="126.854" x2="126.854" y1="63" y2="83"><stop offset="0" stop-color="#137aee"/><stop offset=".543618" stop-color="#0366d6"/><stop offset="1" stop-color="#0754aa"/></linearGradient><linearGradient id="I" gradientUnits="userSpaceOnUse" x1="114.904" x2="139.332" xlink:href="#e" y1="44.6667" y2="45.081"/><linearGradient id="J" gradientUnits="userSpaceOnUse" x1="69.3555" x2="110.355" y1="85.083" y2="127.083"><stop offset=".295935" stop-color="#ffdfca"/><stop offset=".451228" stop-color="#a3643a"/><stop offset=".660227" stop-color="#712e00"/></linearGradient><linearGradient id="K" gradientUnits="userSpaceOnUse" x1="78.4246" x2="139.279" y1="71.9599" y2="79.5772"><stop offset=".452657" stop-color="#fff"/><stop offset="1" stop-color="#a1dafb" stop-opacity="0"/></linearGradient><linearGradient id="L" gradientUnits="userSpaceOnUse" x1="72.4141" x2="168.581" y1="75.1419" y2="75.1419"><stop offset=".175284" stop-color="#fff"/><stop offset=".294195" stop-color="#cfcccc"/><stop offset=".945915" stop-color="#586069"/></linearGradient><g filter="url(#a)"><rect fill="#f6f8fa" height="144" rx="8" width="264" x="2" y="1"/><rect fill="url(#d)" height="12" rx="2" width="232" x="18" y="7"/><rect fill="url(#f)" fill-opacity=".2" height="12" rx="2" width="232" x="18" y="7"/><rect fill="url(#h)" height="12" rx="2" width="32" x="18" y="7"/><rect fill="url(#i)" fill-opacity=".2" height="12" rx="2" width="32" x="18" y="7"/><rect fill="url(#j)" height="12" rx="2" width="64" x="186" y="7"/><rect fill="url(#k)" fill-opacity=".2" height="12" rx="2" width="64" x="186" y="7"/><rect fill="url(#l)" height="12" rx="2" width="208" x="18" y="27"/><rect fill="url(#m)" fill-opacity=".2" height="12" rx="2" width="208" x="18" y="27"/><rect fill="url(#n)" height="12" rx="2" width="32" x="68" y="27"/><rect fill="url(#o)" fill-opacity=".2" height="12" rx="2" width="32" x="68" y="27"/><rect fill="url(#p)" height="12" rx="2" width="232" x="18" y="47"/><rect fill="url(#q)" fill-opacity=".2" height="12" rx="2" width="232" x="18" y="47"/><rect fill="url(#r)" height="12" rx="2" width="192" x="18" y="67"/><rect fill="url(#s)" fill-opacity=".2" height="12" rx="2" width="192" x="18" y="67"/><rect fill="url(#t)" height="12" rx="2" width="72" x="98" y="67"/><rect fill="url(#u)" fill-opacity=".2" height="12" rx="2" width="72" x="98" y="67"/><rect fill="url(#v)" height="12" rx="2" width="152" x="18" y="87"/><rect fill="url(#w)" fill-opacity=".2" height="12" rx="2" width="152" x="18" y="87"/><rect fill="url(#x)" height="12" rx="2" width="192" x="18" y="107"/><rect fill="url(#y)" fill-opacity=".2" height="12" rx="2" width="192" x="18" y="107"/><rect fill="url(#z)" height="12" rx="2" width="89" x="18" y="107"/><rect fill="url(#A)" fill-opacity=".2" height="12" rx="2" width="89" x="18" y="107"/><rect fill="url(#B)" height="12" rx="2" width="232" x="18" y="127"/><rect fill="url(#C)" fill-opacity=".2" height="12" rx="2" width="232" x="18" y="127"/><rect fill="url(#D)" height="12" rx="2" width="72" x="138" y="127"/><rect fill="url(#E)" fill-opacity=".2" height="12" rx="2" width="72" x="138" y="127"/><rect fill="url(#F)" height="20" rx="2" width="27" x="100" y="63"/><rect fill="url(#G)" fill-opacity=".2" height="20" rx="2" width="27" x="100" y="63"/><rect fill="url(#H)" height="20" rx="2" width="27" x="114" y="63"/><rect fill="url(#I)" fill-opacity=".2" height="20" rx="2" width="27" x="114" y="63"/><path d="m139 85c0 5.5228-4.477 10-10 10h-17c-5.523 0-10-4.4772-10-10 0-.5523.448-1 1-1h35c.552 0 1 .4477 1 1z" fill="#f6f8fa"/><path d="m106 59c0-2.2091 1.791-4 4-4h22c2.209 0 4 1.7909 4 4 0 .5523-.448 1-1 1h-28c-.552 0-1-.4477-1-1z" fill="#f6f8fa"/><g filter="url(#b)"><path d="m102.82 86.9621 5.657 5.6568-1.831 2.2059c-7.9545 9.5872-16.7821 18.4142-26.3689 26.3692-1.25 1.037-3.0842.952-4.2327-.196l-1.6031-1.603c-1.1486-1.149-1.2337-2.983-.1965-4.233 7.9549-9.587 16.7826-18.4146 26.3692-26.3695z" fill="url(#J)"/><circle cx="120.498" cy="74.9411" fill="url(#K)" fill-opacity=".2" r="22" stroke="url(#L)" stroke-width="4" transform="matrix(.70710678 .70710678 -.70710678 .70710678 88.284407 -63.255213)"/></g></g></svg>