<svg fill="none" height="148" viewBox="0 0 268 148" width="268" xmlns="http://www.w3.org/2000/svg" xmlns:xlink="http://www.w3.org/1999/xlink"><filter id="a" color-interpolation-filters="sRGB" filterUnits="userSpaceOnUse" height="148" width="268" x="0" y="0"><feFlood flood-opacity="0" result="BackgroundImageFix"/><feColorMatrix in="SourceAlpha" result="hardAlpha" type="matrix" values="0 0 0 0 0 0 0 0 0 0 0 0 0 0 0 0 0 0 127 0"/><feOffset dy="1"/><feGaussianBlur stdDeviation="1"/><feColorMatrix type="matrix" values="0 0 0 0 0 0 0 0 0 0 0 0 0 0 0 0 0 0 0.15 0"/><feBlend in2="BackgroundImageFix" mode="normal" result="effect1_dropShadow_391_1221"/><feBlend in="SourceGraphic" in2="effect1_dropShadow_391_1221" mode="normal" result="shape"/></filter><filter id="b" color-interpolation-filters="sRGB" filterUnits="userSpaceOnUse" height="10.874" width="11.7109" x="16.4688" y="15.4541"><feFlood flood-opacity="0" result="BackgroundImageFix"/><feBlend in="SourceGraphic" in2="BackgroundImageFix" mode="normal" result="shape"/><feGaussianBlur result="effect1_foregroundBlur_391_1221" stdDeviation="2"/></filter><filter id="c" color-interpolation-filters="sRGB" filterUnits="userSpaceOnUse" height="18.874" width="19.7109" x="12.4688" y="11.4541"><feFlood flood-opacity="0" result="BackgroundImageFix"/><feBlend in="SourceGraphic" in2="BackgroundImageFix" mode="normal" result="shape"/><feGaussianBlur result="effect1_foregroundBlur_391_1221" stdDeviation="4"/></filter><filter id="d" color-interpolation-filters="sRGB" filterUnits="userSpaceOnUse" height="18.874" width="19.7109" x="12.4688" y="11.4541"><feFlood flood-opacity="0" result="BackgroundImageFix"/><feBlend in="SourceGraphic" in2="BackgroundImageFix" mode="normal" result="shape"/><feGaussianBlur result="effect1_foregroundBlur_391_1221" stdDeviation="4"/></filter><filter id="e" color-interpolation-filters="sRGB" filterUnits="userSpaceOnUse" height="6.7" width="8.34648" x="22" y="22"><feFlood flood-opacity="0" result="BackgroundImageFix"/><feBlend in="SourceGraphic" in2="BackgroundImageFix" mode="normal" result="shape"/><feColorMatrix in="SourceAlpha" result="hardAlpha" type="matrix" values="0 0 0 0 0 0 0 0 0 0 0 0 0 0 0 0 0 0 127 0"/><feOffset dx=".2" dy=".2"/><feGaussianBlur stdDeviation=".2"/><feComposite in2="hardAlpha" k2="-1" k3="1" operator="arithmetic"/><feColorMatrix type="matrix" values="0 0 0 0 0.114601 0 0 0 0 0.291667 0 0 0 0 0.0060764 0 0 0 0.72 0"/><feBlend in2="shape" mode="normal" result="effect1_innerShadow_391_1221"/></filter><filter id="f" color-interpolation-filters="sRGB" filterUnits="userSpaceOnUse" height="10.874" width="11.7109" x="16.4688" y="39.4541"><feFlood flood-opacity="0" result="BackgroundImageFix"/><feBlend in="SourceGraphic" in2="BackgroundImageFix" mode="normal" result="shape"/><feGaussianBlur result="effect1_foregroundBlur_391_1221" stdDeviation="2"/></filter><filter id="g" color-interpolation-filters="sRGB" filterUnits="userSpaceOnUse" height="18.874" width="19.7109" x="12.4688" y="35.4541"><feFlood flood-opacity="0" result="BackgroundImageFix"/><feBlend in="SourceGraphic" in2="BackgroundImageFix" mode="normal" result="shape"/><feGaussianBlur result="effect1_foregroundBlur_391_1221" stdDeviation="4"/></filter><filter id="h" color-interpolation-filters="sRGB" filterUnits="userSpaceOnUse" height="18.874" width="19.7109" x="12.4688" y="35.4541"><feFlood flood-opacity="0" result="BackgroundImageFix"/><feBlend in="SourceGraphic" in2="BackgroundImageFix" mode="normal" result="shape"/><feGaussianBlur result="effect1_foregroundBlur_391_1221" stdDeviation="4"/></filter><filter id="i" color-interpolation-filters="sRGB" filterUnits="userSpaceOnUse" height="6.7" width="8.34648" x="22" y="46"><feFlood flood-opacity="0" result="BackgroundImageFix"/><feBlend in="SourceGraphic" in2="BackgroundImageFix" mode="normal" result="shape"/><feColorMatrix in="SourceAlpha" result="hardAlpha" type="matrix" values="0 0 0 0 0 0 0 0 0 0 0 0 0 0 0 0 0 0 127 0"/><feOffset dx=".2" dy=".2"/><feGaussianBlur stdDeviation=".2"/><feComposite in2="hardAlpha" k2="-1" k3="1" operator="arithmetic"/><feColorMatrix type="matrix" values="0 0 0 0 0.114601 0 0 0 0 0.291667 0 0 0 0 0.0060764 0 0 0 0.72 0"/><feBlend in2="shape" mode="normal" result="effect1_innerShadow_391_1221"/></filter><filter id="j" color-interpolation-filters="sRGB" filterUnits="userSpaceOnUse" height="10.874" width="11.7109" x="16.4688" y="63.4541"><feFlood flood-opacity="0" result="BackgroundImageFix"/><feBlend in="SourceGraphic" in2="BackgroundImageFix" mode="normal" result="shape"/><feGaussianBlur result="effect1_foregroundBlur_391_1221" stdDeviation="2"/></filter><filter id="k" color-interpolation-filters="sRGB" filterUnits="userSpaceOnUse" height="18.874" width="19.7109" x="12.4688" y="59.4541"><feFlood flood-opacity="0" result="BackgroundImageFix"/><feBlend in="SourceGraphic" in2="BackgroundImageFix" mode="normal" result="shape"/><feGaussianBlur result="effect1_foregroundBlur_391_1221" stdDeviation="4"/></filter><filter id="l" color-interpolation-filters="sRGB" filterUnits="userSpaceOnUse" height="18.874" width="19.7109" x="12.4688" y="59.4541"><feFlood flood-opacity="0" result="BackgroundImageFix"/><feBlend in="SourceGraphic" in2="BackgroundImageFix" mode="normal" result="shape"/><feGaussianBlur result="effect1_foregroundBlur_391_1221" stdDeviation="4"/></filter><filter id="m" color-interpolation-filters="sRGB" filterUnits="userSpaceOnUse" height="6.7" width="8.34648" x="22" y="70"><feFlood flood-opacity="0" result="BackgroundImageFix"/><feBlend in="SourceGraphic" in2="BackgroundImageFix" mode="normal" result="shape"/><feColorMatrix in="SourceAlpha" result="hardAlpha" type="matrix" values="0 0 0 0 0 0 0 0 0 0 0 0 0 0 0 0 0 0 127 0"/><feOffset dx=".2" dy=".2"/><feGaussianBlur stdDeviation=".2"/><feComposite in2="hardAlpha" k2="-1" k3="1" operator="arithmetic"/><feColorMatrix type="matrix" values="0 0 0 0 0.114601 0 0 0 0 0.291667 0 0 0 0 0.0060764 0 0 0 0.72 0"/><feBlend in2="shape" mode="normal" result="effect1_innerShadow_391_1221"/></filter><filter id="n" color-interpolation-filters="sRGB" filterUnits="userSpaceOnUse" height="17" width="16" x="18" y="89"><feFlood flood-opacity="0" result="BackgroundImageFix"/><feBlend in="SourceGraphic" in2="BackgroundImageFix" mode="normal" result="shape"/><feColorMatrix in="SourceAlpha" result="hardAlpha" type="matrix" values="0 0 0 0 0 0 0 0 0 0 0 0 0 0 0 0 0 0 127 0"/><feOffset dy="1"/><feGaussianBlur stdDeviation=".5"/><feComposite in2="hardAlpha" k2="-1" k3="1" operator="arithmetic"/><feColorMatrix type="matrix" values="0 0 0 0 0 0 0 0 0 0 0 0 0 0 0 0 0 0 0.25 0"/><feBlend in2="shape" mode="normal" result="effect1_innerShadow_391_1221"/></filter><filter id="o" color-interpolation-filters="sRGB" filterUnits="userSpaceOnUse" height="17" width="16" x="18" y="113"><feFlood flood-opacity="0" result="BackgroundImageFix"/><feBlend in="SourceGraphic" in2="BackgroundImageFix" mode="normal" result="shape"/><feColorMatrix in="SourceAlpha" result="hardAlpha" type="matrix" values="0 0 0 0 0 0 0 0 0 0 0 0 0 0 0 0 0 0 127 0"/><feOffset dy="1"/><feGaussianBlur stdDeviation=".5"/><feComposite in2="hardAlpha" k2="-1" k3="1" operator="arithmetic"/><feColorMatrix type="matrix" values="0 0 0 0 0 0 0 0 0 0 0 0 0 0 0 0 0 0 0.25 0"/><feBlend in2="shape" mode="normal" result="effect1_innerShadow_391_1221"/></filter><linearGradient id="p"><stop offset="0" stop-color="#31d857"/><stop offset=".601358" stop-color="#28a745"/><stop offset="1" stop-color="#1d7932"/></linearGradient><linearGradient id="q" gradientUnits="userSpaceOnUse" x1="22" x2="28" xlink:href="#p" y1="18" y2="32.5"/><linearGradient id="r"><stop offset="0" stop-color="#4099ff"/><stop offset=".543618" stop-color="#0366d6"/><stop offset="1" stop-color="#0754aa"/></linearGradient><linearGradient id="s" gradientUnits="userSpaceOnUse" x1="141.024" x2="141.024" xlink:href="#r" y1="19" y2="31"/><linearGradient id="t"><stop offset="0" stop-color="#fff"/><stop offset=".721772" stop-color="#fff" stop-opacity="0"/></linearGradient><linearGradient id="u" gradientUnits="userSpaceOnUse" x1="48.9665" x2="228.681" xlink:href="#t" y1="8.00001" y2="47.14"/><linearGradient id="v" gradientUnits="userSpaceOnUse" x1="22" x2="28" xlink:href="#p" y1="42" y2="56.5"/><linearGradient id="w" gradientUnits="userSpaceOnUse" x1="132.931" x2="132.931" xlink:href="#r" y1="43" y2="55"/><linearGradient id="x" gradientUnits="userSpaceOnUse" x1="48.3971" x2="214.604" xlink:href="#t" y1="32" y2="65.2396"/><linearGradient id="y" gradientUnits="userSpaceOnUse" x1="22" x2="28" xlink:href="#p" y1="66" y2="80.5"/><linearGradient id="z" gradientUnits="userSpaceOnUse" x1="141.024" x2="141.024" xlink:href="#r" y1="67" y2="79"/><linearGradient id="A" gradientUnits="userSpaceOnUse" x1="48.9665" x2="228.681" xlink:href="#t" y1="56" y2="95.14"/><linearGradient id="B" gradientUnits="userSpaceOnUse" x1="24.5" x2="29.6287" y1="96" y2="105.254"><stop offset="0" stop-color="#5aa5fb"/><stop offset="1" stop-color="#0c79f7"/></linearGradient><linearGradient id="C" gradientUnits="userSpaceOnUse" x1="111.935" x2="111.935" xlink:href="#r" y1="91" y2="103"/><linearGradient id="D" gradientUnits="userSpaceOnUse" x1="45.9904" x2="177.631" xlink:href="#t" y1="80" y2="100.538"/><linearGradient id="E" gradientUnits="userSpaceOnUse" x1="23.5" x2="35.5" y1="118.5" y2="133"><stop offset="0" stop-color="#4ea0ff"/><stop offset="1" stop-color="#1069d0"/></linearGradient><linearGradient id="F" gradientUnits="userSpaceOnUse" x1="126.218" x2="126.218" xlink:href="#r" y1="115" y2="127"/><linearGradient id="G" gradientUnits="userSpaceOnUse" x1="46.9952" x2="203.492" xlink:href="#t" y1="104" y2="133.331"/><clipPath id="H"><rect height="16" rx="8" width="16" x="18" y="17"/></clipPath><clipPath id="I"><rect height="16" rx="8" width="16" x="18" y="41"/></clipPath><clipPath id="J"><rect height="16" rx="8" width="16" x="18" y="65"/></clipPath><g filter="url(#a)"><rect fill="#f6f8fa" height="144" rx="8" width="264" x="2" y="1"/><g clip-path="url(#H)"><circle cx="26" cy="25" fill="url(#q)" r="8"/><g filter="url(#b)"><path d="m24.1229 19.8875c.2549.49-.388 1.7302-1.1229 2.1125s-2.245.49-2.4999.0001c-.2549-.49 1.0957-1.9251 1.8306-2.3074.735-.3824 1.5374-.2951 1.7922.1948z" fill="#fff"/></g><g filter="url(#c)"><path d="m24.1229 19.8875c.2549.49-.388 1.7302-1.1229 2.1125s-2.245.49-2.4999.0001c-.2549-.49 1.0957-1.9251 1.8306-2.3074.735-.3824 1.5374-.2951 1.7922.1948z" fill="#fff"/></g><g filter="url(#d)"><path d="m24.1229 19.8875c.2549.49-.388 1.7302-1.1229 2.1125s-2.245.49-2.4999.0001c-.2549-.49 1.0957-1.9251 1.8306-2.3074.735-.3824 1.5374-.2951 1.7922.1948z" fill="#fff"/></g><g filter="url(#e)"><path d="m28.8661 22.2197c.2929-.2929.7678-.2929 1.0607 0 .2893.2893.2928.7561.0106 1.0498l-3.9922 4.9902c-.0057.0072-.0119.0141-.0184.0206-.2929.2929-.7678.2929-1.0607 0l-2.6464-2.6464c-.2929-.2929-.2929-.7678 0-1.0607s.7677-.2929 1.0606 0l2.0936 2.0935 3.4723-4.4246c.0062-.0079.0128-.0154.0199-.0224z" fill="#fff"/></g></g><rect fill="url(#s)" height="12" rx="2" width="208" x="42" y="19"/><rect fill="url(#u)" fill-opacity=".2" height="12" rx="2" width="208" x="42" y="19"/><g clip-path="url(#I)"><circle cx="26" cy="49" fill="url(#v)" r="8"/><g filter="url(#f)"><path d="m24.1229 43.8875c.2549.49-.388 1.7302-1.1229 2.1125s-2.245.49-2.4999.0001c-.2549-.49 1.0957-1.9251 1.8306-2.3074.735-.3824 1.5374-.2951 1.7922.1948z" fill="#fff"/></g><g filter="url(#g)"><path d="m24.1229 43.8875c.2549.49-.388 1.7302-1.1229 2.1125s-2.245.49-2.4999.0001c-.2549-.49 1.0957-1.9251 1.8306-2.3074.735-.3824 1.5374-.2951 1.7922.1948z" fill="#fff"/></g><g filter="url(#h)"><path d="m24.1229 43.8875c.2549.49-.388 1.7302-1.1229 2.1125s-2.245.49-2.4999.0001c-.2549-.49 1.0957-1.9251 1.8306-2.3074.735-.3824 1.5374-.2951 1.7922.1948z" fill="#fff"/></g><g filter="url(#i)"><path d="m28.8661 46.2197c.2929-.2929.7678-.2929 1.0607 0 .2893.2893.2928.7561.0106 1.0498l-3.9922 4.9902c-.0057.0072-.0119.0141-.0184.0206-.2929.2929-.7678.2929-1.0607 0l-2.6464-2.6464c-.2929-.2929-.2929-.7678 0-1.0607s.7677-.2929 1.0606 0l2.0936 2.0935 3.4723-4.4246c.0062-.0079.0128-.0154.0199-.0224z" fill="#fff"/></g></g><rect fill="url(#w)" height="12" rx="2" width="191" x="42" y="43"/><rect fill="url(#x)" fill-opacity=".2" height="12" rx="2" width="191" x="42" y="43"/><g clip-path="url(#J)"><circle cx="26" cy="73" fill="url(#y)" r="8"/><g filter="url(#j)"><path d="m24.1229 67.8875c.2549.49-.388 1.7302-1.1229 2.1125s-2.245.49-2.4999.0001c-.2549-.49 1.0957-1.9251 1.8306-2.3074.735-.3824 1.5374-.2951 1.7922.1948z" fill="#fff"/></g><g filter="url(#k)"><path d="m24.1229 67.8875c.2549.49-.388 1.7302-1.1229 2.1125s-2.245.49-2.4999.0001c-.2549-.49 1.0957-1.9251 1.8306-2.3074.735-.3824 1.5374-.2951 1.7922.1948z" fill="#fff"/></g><g filter="url(#l)"><path d="m24.1229 67.8875c.2549.49-.388 1.7302-1.1229 2.1125s-2.245.49-2.4999.0001c-.2549-.49 1.0957-1.9251 1.8306-2.3074.735-.3824 1.5374-.2951 1.7922.1948z" fill="#fff"/></g><g filter="url(#m)"><path d="m28.8661 70.2197c.2929-.2929.7678-.2929 1.0607 0 .2893.2893.2928.7561.0106 1.0498l-3.9922 4.9902c-.0057.0072-.0119.0141-.0184.0206-.2929.2929-.7678.2929-1.0607 0l-2.6464-2.6464c-.2929-.2929-.2929-.7678 0-1.0607s.7677-.2929 1.0606 0l2.0936 2.0935 3.4723-4.4246c.0062-.0079.0128-.0154.0199-.0224z" fill="#fff"/></g></g><rect fill="url(#z)" height="12" rx="2" width="208" x="42" y="67"/><rect fill="url(#A)" fill-opacity=".2" height="12" rx="2" width="208" x="42" y="67"/><g filter="url(#n)"><circle cx="26" cy="97" r="7" stroke="#e1e4e8" stroke-width="2"/></g><path clip-rule="evenodd" d="m26 89c-.5523 0-1 .4477-1 1s.4477 1 1 1c3.3137 0 6 2.6863 6 6 0 3.314-2.6863 6-6 6s-6-2.686-6-6c0-.5523-.4477-1-1-1s-1 .4477-1 1c0 4.418 3.5817 8 8 8s8-3.582 8-8c0-4.4183-3.5817-8-8-8z" fill="url(#B)" fill-rule="evenodd"/><rect fill="url(#C)" height="12" rx="2" width="149" x="41" y="91"/><rect fill="url(#D)" fill-opacity=".2" height="12" rx="2" width="149" x="41" y="91"/><g filter="url(#o)"><circle cx="26" cy="121" r="7" stroke="#e1e4e8" stroke-width="2"/></g><path d="m26 128c3.866 0 7-3.134 7-7s-3.134-7-7-7" stroke="url(#E)" stroke-linecap="round" stroke-width="2"/><rect fill="url(#F)" height="12" rx="2" width="179" x="41" y="115"/><rect fill="url(#G)" fill-opacity=".2" height="12" rx="2" width="179" x="41" y="115"/></g></svg>