<svg width="16" height="16" viewBox="0 0 16 16" fill="none" xmlns="http://www.w3.org/2000/svg">
<path fill-rule="evenodd" clip-rule="evenodd" d="M3 0H11C12.1046 0 13 0.89543 13 2C14.1046 2 15 2.89543 15 4V12C15 13.1046 14.1046 14 13 14C13 15.1046 12.1046 16 11 16H3C1.89543 16 1 15.1046 1 14V2C1 0.89543 1.89543 0 3 0ZM14 4C14 3.44772 13.5523 3 13 3V13C13.5523 13 14 12.5523 14 12V4ZM3 1C2.44772 1 2 1.44772 2 2V14C2 14.5523 2.44772 15 3 15H11C11.5523 15 12 14.5523 12 14V2C12 1.44772 11.5523 1 11 1H3ZM6.35355 5.64645C6.15829 5.45118 5.84171 5.45118 5.64645 5.64645L3.64645 7.64645C3.45118 7.84171 3.45118 8.15829 3.64645 8.35355L5.64645 10.3536C5.84171 10.5488 6.15829 10.5488 6.35355 10.3536C6.54882 10.1583 6.54882 9.84171 6.35355 9.64645L4.70711 8L6.35355 6.35355C6.54882 6.15829 6.54882 5.84171 6.35355 5.64645ZM7.64645 5.64645C7.84171 5.45118 8.15829 5.45118 8.35355 5.64645L10.3536 7.64645C10.5488 7.84171 10.5488 8.15829 10.3536 8.35355L8.35355 10.3536C8.15829 10.5488 7.84171 10.5488 7.64645 10.3536C7.45118 10.1583 7.45118 9.84171 7.64645 9.64645L9.29289 8L7.64645 6.35355C7.45118 6.15829 7.45118 5.84171 7.64645 5.64645Z" fill="currentColor"/>
</svg>
