<svg width="16" height="16" viewBox="0 0 16 16" fill="none" xmlns="http://www.w3.org/2000/svg">
<path fill-rule="evenodd" clip-rule="evenodd" d="M3 4C3 3.62628 3.35608 3.12457 4.31781 2.68742C5.23441 2.27078 6.53579 2 8 2C9.46421 2 10.7656 2.27078 11.6822 2.68742C12.6439 3.12457 13 3.62628 13 4C13 4.37372 12.6439 4.87543 11.6822 5.31258C10.7656 5.72922 9.46421 6 8 6C6.53579 6 5.23441 5.72922 4.31781 5.31258C3.35608 4.87543 3 4.37372 3 4ZM12.096 6.22295C12.4201 6.07563 12.729 5.90046 13 5.69813V7C13 7.28884 12.7873 7.65415 12.2466 8.00701C12.3305 8.00236 12.415 8 12.5 8C13.026 8 13.5308 8.09023 14 8.25606V4C14 2.993 13.1249 2.24472 12.096 1.77705C11.022 1.28886 9.57336 1 8 1C6.42664 1 4.97802 1.28886 3.90401 1.77705C2.87513 2.24472 2 2.993 2 4V13C2 14.007 2.87513 14.7553 3.90401 15.2229C4.97802 15.7111 6.42664 16 8 16C8.53623 16 9.05798 15.9664 9.55534 15.9029C9.24393 15.6332 8.96992 15.3214 8.74213 14.9765C8.50036 14.9919 8.2526 15 8 15C6.53579 15 5.23441 14.7292 4.31781 14.3126C3.35608 13.8754 3 13.3737 3 13V11.6981C3.27105 11.9005 3.5799 12.0756 3.90401 12.2229C4.97802 12.7111 6.42664 13 8 13C8.00916 13 8.01831 13 8.02746 13C8.00932 12.8358 8 12.669 8 12.5C8 12.331 8.00932 12.1641 8.02747 12C8.01832 12 8.00916 12 8 12C6.53579 12 5.23441 11.7292 4.31781 11.3126C3.35608 10.8754 3 10.3737 3 10V8.69813C3.27105 8.90046 3.5799 9.07563 3.90401 9.22295C4.97802 9.71114 6.42664 10 8 10C8.26172 10 8.51999 9.99201 8.77366 9.97643C9.07177 9.53711 9.44552 9.15327 9.87622 8.84366C9.29844 8.94397 8.66607 9 8 9C6.53579 9 5.23441 8.72922 4.31781 8.31258C3.35608 7.87543 3 7.37372 3 7V5.69813C3.27105 5.90046 3.5799 6.07563 3.90401 6.22295C4.97802 6.71114 6.42664 7 8 7C9.57336 7 11.022 6.71114 12.096 6.22295Z" fill="currentColor"/>
<path d="M14.3571 9C14.7121 9 15 9.29395 15 9.65625L15 10.9688C15 11.3311 14.7121 11.625 14.3571 11.625L14.1429 11.625L14.1429 13.375L14.3571 13.375C14.7121 13.375 15 13.6689 15 14.0312L15 15.3438C15 15.7061 14.7121 16 14.3571 16L13.0714 16C12.7165 16 12.4286 15.7061 12.4286 15.3437L12.4286 14.0312C12.4286 13.6689 12.7165 13.375 13.0714 13.375L13.2857 13.375L13.2857 11.625L13.0714 11.625C12.9737 11.625 12.8799 11.6018 12.7969 11.5621L11.5714 12.5L11.5714 13.5937C11.5714 13.9561 11.2835 14.25 10.9286 14.25L9.64286 14.25C9.28795 14.25 9 13.9561 9 13.5937L9 12.2812C9 11.9189 9.28795 11.625 9.64286 11.625L10.9286 11.625C11.0263 11.625 11.1201 11.6482 11.2031 11.6879L12.4286 10.75L12.4286 9.65625C12.4286 9.29395 12.7165 9 13.0714 9L14.3571 9Z" fill="black"/>
</svg>
