<svg fill="none" height="16" viewBox="0 0 16 16" width="16" xmlns="http://www.w3.org/2000/svg" xmlns:xlink="http://www.w3.org/1999/xlink"><clipPath id="a"><path d="m0 0h16v16h-16z"/></clipPath><mask id="b" height="16" maskUnits="userSpaceOnUse" width="16" x="0" y="0"><path d="m16 0h-16v16h16z" fill="#fff"/></mask><g clip-path="url(#a)"><g mask="url(#b)"><path clip-rule="evenodd" d="m8 1c-1.57336 0-3.02198.28886-4.09599.77705-1.02888.46767-1.90401 1.21595-1.90401 2.22295s.87513 1.75528 1.90401 2.22295c1.07401.48819 2.52263.77705 4.09599.77705s3.022-.28886 4.096-.77705c1.0289-.46767 1.904-1.21595 1.904-2.22295s-.8751-1.75528-1.904-2.22295c-1.074-.48819-2.52264-.77705-4.096-.77705zm-6 6v-.83899c.45727.43176 1.00423.75141 1.49021.97231 1.23144.55975 2.82731.86668 4.50979.86668s3.2783-.30693 4.5098-.86668c.486-.2209 1.0329-.54055 1.4902-.97231v.83899c0 .42391-.1551.80198-.4114 1.13256-.3486-.0866-.7132-.13256-1.0886-.13256-1.55 0-2.917.78368-3.72634 1.97644-.25367.01557-.51194.02356-.77366.02356-1.57336 0-3.02198-.28886-4.09599-.77705-1.02888-.46767-1.90401-1.21595-1.90401-2.22295zm6.25691 3.9976c-.08539.0016-.17104.0024-.25691.0024-1.68248 0-3.27835-.3069-4.50979-.8667-.48598-.22088-1.03294-.54053-1.49021-.97229v.83899c0 1.007.87513 1.7553 1.90401 2.223 1.07401.4881 2.52263.777 4.09599.777h.02746c-.01814-.1642-.02746-.331-.02746-.5 0-.5268.09054-1.0325.25691-1.5024zm-.00168 3c-.08483.0016-.16992.0024-.25523.0024-1.68248 0-3.27835-.3069-4.50979-.8667-.48598-.2209-1.03294-.5405-1.49021-.9723v.839c0 1.007.87513 1.7553 1.90401 2.223 1.07401.4881 2.52263.777 4.09599.777.53623 0 1.05798-.0335 1.55534-.0971-.58467-.5064-1.0375-1.1609-1.30011-1.9053z" fill="currentColor" fill-rule="evenodd"/></g><path d="m14.3571 9c.355 0 .6429.29395.6429.65625v1.31255c0 .3623-.2879.6562-.6429.6562h-.2142v1.75h.2142c.355 0 .6429.2939.6429.6562v1.3126c0 .3623-.2879.6562-.6429.6562h-1.2857c-.3549 0-.6428-.2939-.6428-.6563v-1.3125c0-.3623.2879-.6562.6428-.6562h.2143v-1.75h-.2143c-.0977 0-.1915-.0232-.2745-.0629l-1.2255.9379v1.0937c0 .3624-.2879.6563-.6428.6563h-1.28574c-.35491 0-.64286-.2939-.64286-.6563v-1.3125c0-.3623.28795-.6562.64286-.6562h1.28574c.0977 0 .1915.0232.2745.0629l1.2255-.9379v-1.09375c0-.3623.2879-.65625.6428-.65625z" fill="currentColor"/></g></svg>