<svg width="16" height="16" viewBox="0 0 16 16" fill="none" xmlns="http://www.w3.org/2000/svg">
<path d="M14 4.5V9H13V4.5H11C10.1716 4.5 9.5 3.82843 9.5 3V1H4C3.44772 1 3 1.44772 3 2V9H2V2C2 0.89543 2.89543 0 4 0H9.5L14 4.5Z" fill="currentColor"/>
<path d="M6.13868 6.79199L7.46815 7.67831L9.32322 5.82323C9.39931 5.74714 9.51556 5.72828 9.6118 5.7764L11.5 6.75001V8.50001C11.5 8.77615 11.2761 9.00001 11 9.00001H5C4.72386 9.00001 4.5 8.77615 4.5 8.50001V8.00001C4.5 8.00001 6.03952 6.72589 6.13868 6.79199Z" fill="currentColor"/>
<path d="M6.25 6C6.66421 6 7 5.66421 7 5.25C7 4.83579 6.66421 4.5 6.25 4.5C5.83579 4.5 5.5 4.83579 5.5 5.25C5.5 5.66421 5.83579 6 6.25 6Z" fill="currentColor"/>
<path d="M0.5 10C0.223858 10 0 10.2239 0 10.5C0 10.7761 0.223858 11 0.5 11H15.5C15.7761 11 16 10.7761 16 10.5C16 10.2239 15.7761 10 15.5 10H0.5Z" fill="currentColor"/>
<path d="M2 12H14V14C14 15.1046 13.1046 16 12 16H4C2.89543 16 2 15.1046 2 14V12Z" fill="currentColor"/>
</svg>
