<svg width="16" height="16" viewBox="0 0 16 16" fill="none" xmlns="http://www.w3.org/2000/svg">
<path d="M4 0H9.29289C9.55811 0 9.81246 0.105357 10 0.292893L13.7071 4C13.8946 4.18754 14 4.44189 14 4.70711V9H2V2C2 0.895431 2.89543 0 4 0ZM9.5 1.5V3.5C9.5 4.05228 9.94772 4.5 10.5 4.5H12.5L9.5 1.5Z" fill="currentColor"/>
<path d="M0.5 10C0.223858 10 0 10.2239 0 10.5C0 10.7761 0.223858 11 0.5 11H15.5C15.7761 11 16 10.7761 16 10.5C16 10.2239 15.7761 10 15.5 10H0.5Z" fill="currentColor"/>
<path d="M14 12H13V14C13 14.5523 12.5523 15 12 15H4C3.44772 15 3 14.5523 3 14V12H2V14C2 15.1046 2.89543 16 4 16H12C13.1046 16 14 15.1046 14 14V12Z" fill="currentColor"/>
<path d="M4.5 12.5C4.5 12.2239 4.72386 12 5 12H8C8.27614 12 8.5 12.2239 8.5 12.5C8.5 12.7761 8.27614 13 8 13H5C4.72386 13 4.5 12.7761 4.5 12.5Z" fill="currentColor"/>
</svg>
