<svg width="16" height="16" viewBox="0 0 16 16" fill="none" xmlns="http://www.w3.org/2000/svg">
<path d="M8.23529 1.55882C8.08824 1.48039 7.91176 1.48039 7.76471 1.55882L0.264706 5.55882C0.101774 5.64572 0 5.81534 0 6C0 6.18466 0.101774 6.35428 0.264706 6.44118L3.1875 8L0.264706 9.55882C0.101774 9.64572 0 9.81534 0 10C0 10.1847 0.101774 10.3543 0.264706 10.4412L7.76471 14.4412C7.91176 14.5196 8.08824 14.5196 8.23529 14.4412L15.7353 10.4412C15.8982 10.3543 16 10.1847 16 10C16 9.81534 15.8982 9.64572 15.7353 9.55882L12.8125 8L15.7353 6.44118C15.8982 6.35428 16 6.18466 16 6C16 5.81534 15.8982 5.64572 15.7353 5.55882L8.23529 1.55882ZM11.75 8.56667L14.4375 10L8 13.4333L1.5625 10L4.25 8.56667L7.76471 10.4412C7.91176 10.5196 8.08824 10.5196 8.23529 10.4412L11.75 8.56667Z" fill="currentColor"/>
</svg>
