<?xml version="1.0" encoding="UTF-8" standalone="no"?>
<!DOCTYPE svg PUBLIC "-//W3C//DTD SVG 1.1//EN" "http://www.w3.org/Graphics/SVG/1.1/DTD/svg11.dtd">
<svg width="100%" height="100%" viewBox="0 0 657 138" version="1.1" xmlns="http://www.w3.org/2000/svg" xmlns:xlink="http://www.w3.org/1999/xlink" xml:space="preserve" xmlns:serif="http://www.serif.com/" style="fill-rule:evenodd;clip-rule:evenodd;stroke-linejoin:round;stroke-miterlimit:2;">
    <g transform="matrix(1,0,0,1,-660.855,-43.9629)">
        <g id="browsertrix-lockupwname-color" transform="matrix(0.843526,0,0,0.577924,-4.62616,413.018)">
            <rect x="788.928" y="-638.587" width="778.874" height="237.12" style="fill:none;"/>
            <clipPath id="_clip1">
                <rect x="788.928" y="-638.587" width="778.874" height="237.12"/>
            </clipPath>
            <g clip-path="url(#_clip1)">
                <g transform="matrix(1.1855,0,0,1.73033,-626.87,903.95)">
                    <g transform="matrix(50,0,0,50,1478.05,-763.832)">
                        <path d="M0.347,0.011C0.315,0.011 0.285,0.006 0.256,-0.003C0.226,-0.013 0.2,-0.024 0.177,-0.039L0.211,-0.128C0.225,-0.123 0.24,-0.12 0.256,-0.117C0.271,-0.114 0.287,-0.112 0.303,-0.112C0.325,-0.112 0.343,-0.117 0.358,-0.127C0.373,-0.137 0.385,-0.153 0.393,-0.176C0.402,-0.199 0.406,-0.229 0.406,-0.267C0.406,-0.298 0.404,-0.323 0.4,-0.343C0.396,-0.363 0.389,-0.379 0.381,-0.39C0.373,-0.402 0.363,-0.41 0.352,-0.414C0.34,-0.419 0.327,-0.421 0.312,-0.421C0.295,-0.421 0.277,-0.418 0.258,-0.413C0.239,-0.407 0.222,-0.397 0.207,-0.383L0.174,-0.446C0.191,-0.468 0.21,-0.487 0.231,-0.501C0.251,-0.516 0.272,-0.527 0.295,-0.534C0.317,-0.541 0.34,-0.544 0.362,-0.544C0.391,-0.544 0.417,-0.539 0.442,-0.529C0.466,-0.519 0.487,-0.503 0.505,-0.482C0.523,-0.46 0.537,-0.432 0.546,-0.397C0.556,-0.362 0.561,-0.319 0.561,-0.269C0.561,-0.208 0.553,-0.157 0.536,-0.116C0.52,-0.074 0.496,-0.043 0.464,-0.022C0.432,-0 0.393,0.011 0.347,0.011ZM0.07,-0L0.07,-0.75L0.226,-0.75L0.226,-0.09L0.167,-0L0.07,-0Z" style="fill:rgb(20,18,45);fill-rule:nonzero;"/>
                    </g>
                    <g transform="matrix(50,0,0,50,1508.1,-763.832)">
                        <path d="M0.111,0.18L0.111,0.135L0.283,-0.013L0.272,-0.139L0.368,-0.534L0.514,-0.534L0.514,-0.493L0.296,0.18L0.111,0.18ZM0.179,-0.017L0.024,-0.493L0.024,-0.534L0.171,-0.534L0.279,-0.126L0.311,-0.017L0.179,-0.017Z" style="fill:rgb(20,18,45);fill-rule:nonzero;"/>
                    </g>
                    <g transform="matrix(50,0,0,50,1534.88,-763.832)">
                    </g>
                    <g transform="matrix(50,0,0,50,1548.39,-763.832)">
                        <path d="M0.165,-0L0.207,-0.147L0.395,-0.599L0.46,-0.599L0.65,-0.145L0.688,-0L0.583,-0L0.428,-0.351L0.405,-0.42L0.449,-0.42L0.426,-0.351L0.268,-0L0.165,-0ZM0.15,-0L0.045,-0.67L0.045,-0.71L0.197,-0.71L0.273,-0.217L0.242,-0L0.15,-0ZM0.611,-0L0.58,-0.217L0.658,-0.71L0.809,-0.71L0.809,-0.67L0.703,-0L0.611,-0Z" style="fill:rgb(20,18,45);fill-rule:nonzero;"/>
                    </g>
                    <g transform="matrix(50,0,0,50,1590.78,-763.832)">
                        <path d="M0.322,0.011C0.261,0.011 0.209,0 0.167,-0.021C0.125,-0.041 0.093,-0.072 0.072,-0.113C0.05,-0.153 0.039,-0.203 0.039,-0.262C0.039,-0.322 0.049,-0.373 0.069,-0.414C0.089,-0.456 0.117,-0.488 0.155,-0.511C0.192,-0.533 0.237,-0.544 0.29,-0.544C0.325,-0.544 0.356,-0.539 0.383,-0.529C0.409,-0.52 0.431,-0.505 0.448,-0.486C0.465,-0.467 0.478,-0.445 0.486,-0.418C0.495,-0.392 0.499,-0.361 0.499,-0.328L0.499,-0.225L0.102,-0.225L0.102,-0.311L0.391,-0.311L0.362,-0.262L0.362,-0.349C0.362,-0.359 0.361,-0.369 0.359,-0.377C0.358,-0.386 0.355,-0.394 0.352,-0.401C0.348,-0.407 0.343,-0.413 0.338,-0.418C0.332,-0.423 0.325,-0.426 0.317,-0.429C0.309,-0.431 0.3,-0.432 0.29,-0.432C0.27,-0.432 0.252,-0.427 0.238,-0.416C0.223,-0.405 0.212,-0.387 0.204,-0.362C0.196,-0.337 0.192,-0.303 0.192,-0.261C0.192,-0.223 0.198,-0.193 0.208,-0.169C0.219,-0.146 0.235,-0.128 0.257,-0.118C0.279,-0.107 0.306,-0.101 0.339,-0.101C0.361,-0.101 0.382,-0.103 0.403,-0.106C0.423,-0.109 0.443,-0.113 0.465,-0.118L0.487,-0.017C0.462,-0.008 0.435,-0.002 0.407,0.003C0.379,0.008 0.35,0.011 0.322,0.011Z" style="fill:rgb(20,18,45);fill-rule:nonzero;"/>
                    </g>
                    <g transform="matrix(50,0,0,50,1617.72,-763.832)">
                        <path d="M0.347,0.011C0.315,0.011 0.285,0.006 0.256,-0.003C0.226,-0.013 0.2,-0.024 0.177,-0.039L0.211,-0.128C0.225,-0.123 0.24,-0.12 0.256,-0.117C0.271,-0.114 0.287,-0.112 0.303,-0.112C0.325,-0.112 0.343,-0.117 0.358,-0.127C0.373,-0.137 0.385,-0.153 0.393,-0.176C0.402,-0.199 0.406,-0.229 0.406,-0.267C0.406,-0.298 0.404,-0.323 0.4,-0.343C0.396,-0.363 0.389,-0.379 0.381,-0.39C0.373,-0.402 0.363,-0.41 0.352,-0.414C0.34,-0.419 0.327,-0.421 0.312,-0.421C0.295,-0.421 0.277,-0.418 0.258,-0.413C0.239,-0.407 0.222,-0.397 0.207,-0.383L0.174,-0.446C0.191,-0.468 0.21,-0.487 0.231,-0.501C0.251,-0.516 0.272,-0.527 0.295,-0.534C0.317,-0.541 0.34,-0.544 0.362,-0.544C0.391,-0.544 0.417,-0.539 0.442,-0.529C0.466,-0.519 0.487,-0.503 0.505,-0.482C0.523,-0.46 0.537,-0.432 0.546,-0.397C0.556,-0.362 0.561,-0.319 0.561,-0.269C0.561,-0.208 0.553,-0.157 0.536,-0.116C0.52,-0.074 0.496,-0.043 0.464,-0.022C0.432,-0 0.393,0.011 0.347,0.011ZM0.07,-0L0.07,-0.75L0.226,-0.75L0.226,-0.09L0.167,-0L0.07,-0Z" style="fill:rgb(20,18,45);fill-rule:nonzero;"/>
                    </g>
                    <g transform="matrix(50,0,0,50,1647.77,-763.832)">
                        <path d="M0.07,-0L0.07,-0.534L0.175,-0.534L0.226,-0.386L0.226,-0L0.07,-0ZM0.186,-0.293L0.186,-0.393L0.324,-0.534L0.399,-0.534L0.399,-0.358L0.186,-0.293Z" style="fill:rgb(20,18,45);fill-rule:nonzero;"/>
                    </g>
                    <g transform="matrix(50,0,0,50,1669.75,-763.832)">
                        <path d="M0.322,0.011C0.261,0.011 0.209,0 0.167,-0.021C0.125,-0.041 0.093,-0.072 0.072,-0.113C0.05,-0.153 0.039,-0.203 0.039,-0.262C0.039,-0.322 0.049,-0.373 0.069,-0.414C0.089,-0.456 0.117,-0.488 0.155,-0.511C0.192,-0.533 0.237,-0.544 0.29,-0.544C0.325,-0.544 0.356,-0.539 0.383,-0.529C0.409,-0.52 0.431,-0.505 0.448,-0.486C0.465,-0.467 0.478,-0.445 0.486,-0.418C0.495,-0.392 0.499,-0.361 0.499,-0.328L0.499,-0.225L0.102,-0.225L0.102,-0.311L0.391,-0.311L0.362,-0.262L0.362,-0.349C0.362,-0.359 0.361,-0.369 0.359,-0.377C0.358,-0.386 0.355,-0.394 0.352,-0.401C0.348,-0.407 0.343,-0.413 0.338,-0.418C0.332,-0.423 0.325,-0.426 0.317,-0.429C0.309,-0.431 0.3,-0.432 0.29,-0.432C0.27,-0.432 0.252,-0.427 0.238,-0.416C0.223,-0.405 0.212,-0.387 0.204,-0.362C0.196,-0.337 0.192,-0.303 0.192,-0.261C0.192,-0.223 0.198,-0.193 0.208,-0.169C0.219,-0.146 0.235,-0.128 0.257,-0.118C0.279,-0.107 0.306,-0.101 0.339,-0.101C0.361,-0.101 0.382,-0.103 0.403,-0.106C0.423,-0.109 0.443,-0.113 0.465,-0.118L0.487,-0.017C0.462,-0.008 0.435,-0.002 0.407,0.003C0.379,0.008 0.35,0.011 0.322,0.011Z" style="fill:rgb(20,18,45);fill-rule:nonzero;"/>
                    </g>
                    <g transform="matrix(50,0,0,50,1696.69,-763.832)">
                        <path d="M0.299,0.011C0.255,0.011 0.216,0.004 0.184,-0.008C0.151,-0.021 0.124,-0.039 0.103,-0.064C0.081,-0.088 0.065,-0.117 0.055,-0.152C0.045,-0.187 0.039,-0.226 0.039,-0.27C0.039,-0.313 0.045,-0.352 0.056,-0.386C0.067,-0.42 0.083,-0.448 0.104,-0.472C0.126,-0.495 0.153,-0.513 0.185,-0.526C0.218,-0.538 0.256,-0.544 0.298,-0.544C0.322,-0.544 0.345,-0.542 0.367,-0.539C0.389,-0.536 0.41,-0.531 0.429,-0.524L0.404,-0.41C0.391,-0.413 0.377,-0.416 0.363,-0.418C0.348,-0.42 0.334,-0.421 0.318,-0.421C0.297,-0.421 0.279,-0.417 0.263,-0.411C0.247,-0.404 0.234,-0.395 0.224,-0.381C0.213,-0.368 0.206,-0.352 0.2,-0.333C0.195,-0.314 0.192,-0.291 0.192,-0.266C0.192,-0.238 0.195,-0.214 0.201,-0.195C0.206,-0.176 0.214,-0.16 0.225,-0.148C0.236,-0.136 0.249,-0.127 0.265,-0.121C0.281,-0.116 0.299,-0.113 0.319,-0.113C0.335,-0.113 0.35,-0.114 0.365,-0.116C0.38,-0.118 0.395,-0.121 0.409,-0.124L0.434,-0.011C0.413,-0.004 0.391,0.001 0.369,0.005C0.346,0.009 0.323,0.011 0.299,0.011Z" style="fill:rgb(20,18,45);fill-rule:nonzero;"/>
                    </g>
                    <g transform="matrix(50,0,0,50,1720.29,-763.832)">
                        <path d="M0.289,0.011C0.238,0.011 0.193,0.001 0.156,-0.019C0.118,-0.038 0.09,-0.069 0.069,-0.109C0.049,-0.15 0.039,-0.202 0.039,-0.265C0.039,-0.329 0.049,-0.382 0.069,-0.423C0.09,-0.464 0.118,-0.494 0.156,-0.514C0.193,-0.534 0.238,-0.544 0.289,-0.544C0.341,-0.544 0.386,-0.534 0.423,-0.514C0.46,-0.495 0.489,-0.464 0.509,-0.423C0.529,-0.382 0.539,-0.33 0.539,-0.266C0.539,-0.203 0.529,-0.151 0.509,-0.11C0.489,-0.069 0.46,-0.039 0.423,-0.019C0.385,0.001 0.341,0.011 0.289,0.011ZM0.289,-0.109C0.31,-0.109 0.327,-0.114 0.342,-0.125C0.356,-0.135 0.367,-0.152 0.375,-0.175C0.383,-0.198 0.387,-0.229 0.387,-0.266C0.387,-0.304 0.383,-0.335 0.375,-0.358C0.367,-0.381 0.356,-0.398 0.342,-0.409C0.327,-0.419 0.31,-0.425 0.289,-0.425C0.269,-0.425 0.252,-0.419 0.238,-0.409C0.223,-0.398 0.212,-0.381 0.204,-0.358C0.196,-0.335 0.192,-0.304 0.192,-0.266C0.192,-0.229 0.196,-0.198 0.204,-0.175C0.212,-0.152 0.223,-0.135 0.238,-0.125C0.252,-0.114 0.269,-0.109 0.289,-0.109Z" style="fill:rgb(20,18,45);fill-rule:nonzero;"/>
                    </g>
                    <g transform="matrix(50,0,0,50,1749.22,-763.832)">
                        <path d="M0.07,-0L0.07,-0.534L0.175,-0.534L0.226,-0.386L0.226,-0L0.07,-0ZM0.186,-0.293L0.186,-0.393L0.324,-0.534L0.399,-0.534L0.399,-0.358L0.186,-0.293Z" style="fill:rgb(20,18,45);fill-rule:nonzero;"/>
                    </g>
                    <g transform="matrix(50,0,0,50,1771.2,-763.832)">
                        <path d="M0.239,0.011C0.21,0.011 0.184,0.006 0.159,-0.004C0.135,-0.014 0.114,-0.03 0.096,-0.052C0.078,-0.074 0.064,-0.102 0.054,-0.137C0.044,-0.172 0.039,-0.215 0.039,-0.266C0.039,-0.326 0.048,-0.377 0.064,-0.418C0.081,-0.459 0.106,-0.491 0.138,-0.512C0.17,-0.533 0.209,-0.544 0.254,-0.544C0.286,-0.544 0.316,-0.54 0.346,-0.531C0.375,-0.522 0.401,-0.51 0.424,-0.495L0.39,-0.406C0.376,-0.411 0.361,-0.415 0.346,-0.417C0.331,-0.42 0.315,-0.421 0.299,-0.421C0.278,-0.421 0.26,-0.417 0.244,-0.407C0.228,-0.397 0.216,-0.381 0.208,-0.359C0.199,-0.336 0.195,-0.306 0.194,-0.267C0.194,-0.236 0.197,-0.211 0.201,-0.191C0.205,-0.171 0.211,-0.155 0.219,-0.144C0.228,-0.132 0.237,-0.124 0.249,-0.119C0.261,-0.115 0.274,-0.112 0.288,-0.112C0.306,-0.112 0.324,-0.115 0.343,-0.121C0.361,-0.128 0.378,-0.137 0.394,-0.151L0.424,-0.088C0.408,-0.067 0.39,-0.05 0.37,-0.035C0.35,-0.02 0.329,-0.009 0.307,-0.001C0.285,0.007 0.262,0.011 0.239,0.011ZM0.43,-0L0.375,-0.1L0.375,-0.75L0.53,-0.75L0.53,-0L0.43,-0Z" style="fill:rgb(20,18,45);fill-rule:nonzero;"/>
                    </g>
                    <g transform="matrix(50,0,0,50,1801.23,-763.832)">
                        <path d="M0.322,0.011C0.261,0.011 0.209,0 0.167,-0.021C0.125,-0.041 0.093,-0.072 0.072,-0.113C0.05,-0.153 0.039,-0.203 0.039,-0.262C0.039,-0.322 0.049,-0.373 0.069,-0.414C0.089,-0.456 0.117,-0.488 0.155,-0.511C0.192,-0.533 0.237,-0.544 0.29,-0.544C0.325,-0.544 0.356,-0.539 0.383,-0.529C0.409,-0.52 0.431,-0.505 0.448,-0.486C0.465,-0.467 0.478,-0.445 0.486,-0.418C0.495,-0.392 0.499,-0.361 0.499,-0.328L0.499,-0.225L0.102,-0.225L0.102,-0.311L0.391,-0.311L0.362,-0.262L0.362,-0.349C0.362,-0.359 0.361,-0.369 0.359,-0.377C0.358,-0.386 0.355,-0.394 0.352,-0.401C0.348,-0.407 0.343,-0.413 0.338,-0.418C0.332,-0.423 0.325,-0.426 0.317,-0.429C0.309,-0.431 0.3,-0.432 0.29,-0.432C0.27,-0.432 0.252,-0.427 0.238,-0.416C0.223,-0.405 0.212,-0.387 0.204,-0.362C0.196,-0.337 0.192,-0.303 0.192,-0.261C0.192,-0.223 0.198,-0.193 0.208,-0.169C0.219,-0.146 0.235,-0.128 0.257,-0.118C0.279,-0.107 0.306,-0.101 0.339,-0.101C0.361,-0.101 0.382,-0.103 0.403,-0.106C0.423,-0.109 0.443,-0.113 0.465,-0.118L0.487,-0.017C0.462,-0.008 0.435,-0.002 0.407,0.003C0.379,0.008 0.35,0.011 0.322,0.011Z" style="fill:rgb(20,18,45);fill-rule:nonzero;"/>
                    </g>
                    <g transform="matrix(50,0,0,50,1828.17,-763.832)">
                        <path d="M0.07,-0L0.07,-0.534L0.175,-0.534L0.226,-0.386L0.226,-0L0.07,-0ZM0.186,-0.293L0.186,-0.393L0.324,-0.534L0.399,-0.534L0.399,-0.358L0.186,-0.293Z" style="fill:rgb(20,18,45);fill-rule:nonzero;"/>
                    </g>
                    <g transform="matrix(50,0,0,50,1850.14,-763.832)">
                    </g>
                </g>
                <g id="Text" transform="matrix(1.1855,0,0,1.73033,794.856,-638.459)">
                    <path d="M146.76,75L119.928,75L119.928,19.62L146.994,19.62C151.674,19.62 155.262,20.79 157.758,23.13C160.254,25.418 161.502,28.564 161.502,32.568C161.502,35.896 160.436,38.86 158.304,41.46C157.128,42.93 155.685,44.235 153.977,45.372C156.155,46.31 157.936,47.58 159.318,49.182C161.606,51.834 162.75,55.214 162.75,59.322C162.75,64.158 161.398,67.98 158.694,70.788C155.99,73.596 152.012,75 146.76,75ZM132.486,29.058L132.486,43.41L145.134,43.41C146.188,42.446 147.043,41.354 147.696,40.134C148.476,38.678 148.866,37.118 148.866,35.454C148.866,33.53 148.372,31.996 147.384,30.852C146.448,29.656 145.148,29.058 143.484,29.058L132.486,29.058ZM132.486,51.21L132.486,65.25L144.342,65.25C146.214,65.25 147.618,64.678 148.554,63.534C149.542,62.338 150.036,60.622 150.036,58.386C150.036,56.098 149.542,54.33 148.554,53.082C147.764,52.042 146.69,51.418 145.334,51.21L132.486,51.21ZM185.825,56.514L185.825,75L173.267,75L173.267,19.62L197.993,19.62C203.661,19.62 207.951,21.024 210.863,23.832C213.827,26.64 215.309,30.54 215.309,35.532C215.309,39.744 214.191,43.436 211.955,46.608C210.501,48.685 208.609,50.67 206.279,52.563L215.699,72.036L215.699,75L203.375,75L193.566,56.514L185.825,56.514ZM185.825,29.526L185.825,47.544L197.594,47.544C199.081,46.467 200.254,45.115 201.113,43.488C202.153,41.616 202.673,39.484 202.673,37.092C202.673,34.648 202.101,32.776 200.957,31.476C199.865,30.176 198.279,29.526 196.199,29.526L185.825,29.526ZM291.766,75L282.172,75L275.074,22.974L275.074,19.62L287.32,19.62L291.366,51.338L300.19,28.356L305.26,28.356L313.946,50.9L318.13,19.62L330.22,19.62L330.22,22.974L323.2,75L313.372,75L302.842,49.494L302.647,48.868L302.452,49.494L291.766,75ZM419.644,75L385.402,75L385.402,19.62L419.644,19.62L419.644,30.696L397.96,30.696L397.96,42.864L417.85,42.864L417.85,51.678L397.96,51.678L397.96,63.924L419.644,63.924L419.644,75ZM442.996,56.514L442.996,75L430.438,75L430.438,19.62L455.164,19.62C460.832,19.62 465.122,21.024 468.034,23.832C470.998,26.64 472.48,30.54 472.48,35.532C472.48,39.744 471.362,43.436 469.126,46.608C467.672,48.685 465.78,50.67 463.45,52.563L472.87,72.036L472.87,75L460.546,75L450.737,56.514L442.996,56.514ZM442.996,29.526L442.996,47.544L454.765,47.544C456.252,46.467 457.425,45.115 458.284,43.488C459.324,41.616 459.844,39.484 459.844,37.092C459.844,34.648 459.272,32.776 458.128,31.476C457.036,30.176 455.45,29.526 453.37,29.526L442.996,29.526ZM493.534,31.008L479.806,31.008L479.806,19.62L519.664,19.62L519.664,31.008L506.092,31.008L506.092,75L493.534,75L493.534,31.008ZM541.885,56.514L541.885,75L529.327,75L529.327,19.62L554.053,19.62C559.721,19.62 564.011,21.024 566.923,23.832C569.887,26.64 571.369,30.54 571.369,35.532C571.369,39.744 570.251,43.436 568.015,46.608C566.561,48.685 564.669,50.67 562.339,52.563L571.759,72.036L571.759,75L559.435,75L549.626,56.514L541.885,56.514ZM541.885,29.526L541.885,47.544L553.654,47.544C555.141,46.467 556.314,45.115 557.173,43.488C558.213,41.616 558.733,39.484 558.733,37.092C558.733,34.648 558.161,32.776 557.017,31.476C555.925,30.176 554.339,29.526 552.259,29.526L541.885,29.526ZM625.43,57.033L615.939,75L604.161,75L604.161,71.646L619.354,46.741L605.019,22.974L605.019,19.62L617.343,19.62L627.874,36.853L637.233,19.62L648.855,19.62L648.855,22.974L634.082,47.459L648.855,71.646L648.855,75L636.453,75L625.43,57.033ZM245.956,75.78C241.068,75.78 236.96,74.844 233.632,72.972C230.356,71.1 227.86,68.084 226.144,63.924C224.428,59.764 223.57,54.252 223.57,47.388C223.57,40.472 224.428,34.934 226.144,30.774C227.86,26.562 230.356,23.52 233.632,21.648C236.96,19.776 241.068,18.84 245.956,18.84C250.844,18.84 254.9,19.776 258.124,21.648C261.401,23.52 263.897,26.562 265.613,30.774C267.38,34.934 268.264,40.472 268.264,47.388C268.264,54.2 267.406,59.686 265.69,63.846C263.975,68.006 261.453,71.048 258.124,72.972C254.849,74.844 250.792,75.78 245.956,75.78ZM245.956,65.796C248.036,65.796 249.778,65.302 251.182,64.314C252.586,63.274 253.678,61.428 254.458,58.776C255.29,56.072 255.706,52.276 255.706,47.388C255.706,42.552 255.29,38.782 254.458,36.078C253.678,33.322 252.586,31.424 251.182,30.384C249.778,29.292 248.036,28.772 245.956,28.824C243.772,28.876 241.952,29.422 240.496,30.462C239.092,31.45 238,33.296 237.22,36C236.492,38.704 236.128,42.5 236.128,47.388C236.128,52.276 236.518,56.072 237.298,58.776C238.078,61.48 239.17,63.326 240.574,64.314C242.03,65.302 243.824,65.796 245.956,65.796ZM354.113,75.78C351.045,75.78 348.081,75.572 345.221,75.156C342.413,74.792 339.657,74.246 336.953,73.518L339.059,64.158C341.347,64.73 343.661,65.198 346.001,65.562C348.393,65.874 350.707,66.03 352.943,66.03C356.531,66.03 359.079,65.536 360.587,64.548C362.147,63.508 362.927,61.974 362.927,59.946C362.927,59.218 362.771,58.516 362.459,57.84C362.147,57.164 361.653,56.54 360.977,55.968C360.353,55.396 359.573,54.85 358.637,54.33C358.585,54.278 358.533,54.252 358.481,54.252L358.325,54.252L347.717,48.246C347.561,48.142 347.379,48.038 347.171,47.934C347.015,47.83 346.859,47.752 346.703,47.7C343.687,45.984 341.321,44.112 339.605,42.084C337.889,40.004 337.031,37.3 337.031,33.972C337.031,30.904 337.863,28.252 339.527,26.016C341.243,23.728 343.713,21.96 346.937,20.712C350.213,19.464 354.139,18.84 358.715,18.84C361.367,18.84 364.019,18.996 366.671,19.308C369.375,19.62 371.949,20.088 374.393,20.712L372.287,30.072C370.259,29.604 368.179,29.24 366.047,28.98C363.967,28.72 361.991,28.59 360.119,28.59C357.883,28.59 355.985,28.798 354.425,29.214C352.917,29.578 351.773,30.202 350.993,31.086C350.265,31.918 349.901,32.958 349.901,34.206C349.901,35.298 350.135,36.208 350.603,36.936C351.123,37.612 351.981,38.288 353.177,38.964C353.229,38.964 353.255,38.99 353.255,39.042C353.307,39.094 353.359,39.12 353.411,39.12L364.643,44.97C367.139,46.166 369.193,47.518 370.805,49.026C372.417,50.482 373.639,52.146 374.471,54.018C375.355,55.838 375.797,57.892 375.797,60.18C375.797,65.172 373.925,69.02 370.181,71.724C366.437,74.428 361.081,75.78 354.113,75.78ZM582.361,75L582.361,19.62L594.919,19.62L594.919,75L582.361,75Z" style="fill:rgb(20,18,45);"/>
                </g>
                <g id="Page" transform="matrix(1.1855,0,0,1.73033,-6737.81,-2783.33)">
                    <path d="M6430.4,1290.72C6430.03,1290.88 6429.8,1291.24 6429.8,1291.63C6429.8,1292.03 6430.03,1292.39 6430.4,1292.55C6434.28,1294.25 6437,1298.13 6437,1302.63C6437,1307.14 6434.28,1311.02 6430.4,1312.72C6430.03,1312.88 6429.8,1313.24 6429.8,1313.63C6429.8,1314.03 6430.03,1314.39 6430.4,1314.55C6434.28,1316.25 6437,1320.13 6437,1324.63C6437,1330.71 6432.07,1335.63 6426,1335.63C6421.49,1335.63 6417.61,1332.92 6415.92,1329.03C6415.76,1328.67 6415.4,1328.43 6415,1328.43C6414.6,1328.43 6414.24,1328.67 6414.08,1329.03C6412.39,1332.92 6408.51,1335.63 6404,1335.63C6399.49,1335.63 6395.61,1332.92 6393.92,1329.03C6393.76,1328.67 6393.4,1328.43 6393,1328.43C6392.6,1328.43 6392.24,1328.67 6392.08,1329.03C6390.39,1332.92 6386.51,1335.63 6382,1335.63C6377.49,1335.63 6373.61,1332.92 6371.92,1329.03C6371.76,1328.67 6371.4,1328.43 6371,1328.43C6370.6,1328.43 6370.24,1328.67 6370.08,1329.03C6368.39,1332.92 6364.51,1335.63 6360,1335.63C6353.93,1335.63 6349,1330.71 6349,1324.63C6349,1320.13 6351.72,1316.25 6355.6,1314.55C6355.97,1314.39 6356.2,1314.03 6356.2,1313.63C6356.2,1313.24 6355.97,1312.88 6355.6,1312.72C6351.72,1311.02 6349,1307.14 6349,1302.63C6349,1298.13 6351.72,1294.25 6355.6,1292.55C6355.97,1292.39 6356.2,1292.03 6356.2,1291.63C6356.2,1291.24 6355.97,1290.88 6355.6,1290.72C6351.72,1289.02 6349,1285.14 6349,1280.63C6349,1274.56 6353.93,1269.63 6360,1269.63C6364.51,1269.63 6368.39,1272.35 6370.08,1276.24C6370.24,1276.6 6370.6,1276.84 6371,1276.84C6371.4,1276.84 6371.76,1276.6 6371.92,1276.24C6373.61,1272.35 6377.49,1269.63 6382,1269.63C6386.51,1269.63 6390.39,1272.35 6392.08,1276.24C6392.24,1276.6 6392.6,1276.84 6393,1276.84C6393.4,1276.84 6393.76,1276.6 6393.92,1276.24C6395.61,1272.35 6399.49,1269.63 6404,1269.63C6408.51,1269.63 6412.39,1272.35 6414.08,1276.24C6414.24,1276.6 6414.6,1276.84 6415,1276.84C6415.4,1276.84 6415.76,1276.6 6415.92,1276.24C6417.61,1272.35 6421.49,1269.63 6426,1269.63C6432.07,1269.63 6437,1274.56 6437,1280.63C6437,1285.14 6434.28,1289.02 6430.4,1290.72ZM6371.92,1285.03C6371.76,1284.67 6371.4,1284.43 6371,1284.43C6370.6,1284.43 6370.24,1284.67 6370.08,1285.03C6368.97,1287.57 6366.94,1289.61 6364.4,1290.72C6364.03,1290.88 6363.8,1291.24 6363.8,1291.63C6363.8,1292.03 6364.03,1292.39 6364.4,1292.55C6366.94,1293.66 6368.97,1295.7 6370.08,1298.24C6370.24,1298.6 6370.6,1298.84 6371,1298.84C6371.4,1298.84 6371.76,1298.6 6371.92,1298.24C6373.03,1295.7 6375.06,1293.66 6377.6,1292.55C6377.97,1292.39 6378.2,1292.03 6378.2,1291.63C6378.2,1291.24 6377.97,1290.88 6377.6,1290.72C6375.06,1289.61 6373.03,1287.57 6371.92,1285.03ZM6415.92,1307.03C6415.76,1306.67 6415.4,1306.43 6415,1306.43C6414.6,1306.43 6414.24,1306.67 6414.08,1307.03C6412.97,1309.57 6410.94,1311.61 6408.4,1312.72C6408.03,1312.88 6407.8,1313.24 6407.8,1313.63C6407.8,1314.03 6408.03,1314.39 6408.4,1314.55C6410.94,1315.66 6412.97,1317.7 6414.08,1320.24C6414.24,1320.6 6414.6,1320.84 6415,1320.84C6415.4,1320.84 6415.76,1320.6 6415.92,1320.24C6417.03,1317.7 6419.06,1315.66 6421.6,1314.55C6421.97,1314.39 6422.2,1314.03 6422.2,1313.63C6422.2,1313.24 6421.97,1312.88 6421.6,1312.72C6419.06,1311.61 6417.03,1309.57 6415.92,1307.03ZM6415.92,1285.03C6415.76,1284.67 6415.4,1284.43 6415,1284.43C6414.6,1284.43 6414.24,1284.67 6414.08,1285.03C6412.97,1287.57 6410.94,1289.61 6408.4,1290.72C6408.03,1290.88 6407.8,1291.24 6407.8,1291.63C6407.8,1292.03 6408.03,1292.39 6408.4,1292.55C6410.94,1293.66 6412.97,1295.7 6414.08,1298.24C6414.24,1298.6 6414.6,1298.84 6415,1298.84C6415.4,1298.84 6415.76,1298.6 6415.92,1298.24C6417.03,1295.7 6419.06,1293.66 6421.6,1292.55C6421.97,1292.39 6422.2,1292.03 6422.2,1291.63C6422.2,1291.24 6421.97,1290.88 6421.6,1290.72C6419.06,1289.61 6417.03,1287.57 6415.92,1285.03ZM6393.92,1285.03C6393.76,1284.67 6393.4,1284.43 6393,1284.43C6392.6,1284.43 6392.24,1284.67 6392.08,1285.03C6390.97,1287.57 6388.94,1289.61 6386.4,1290.72C6386.03,1290.88 6385.8,1291.24 6385.8,1291.63C6385.8,1292.03 6386.03,1292.39 6386.4,1292.55C6388.94,1293.66 6390.97,1295.7 6392.08,1298.24C6392.24,1298.6 6392.6,1298.84 6393,1298.84C6393.4,1298.84 6393.76,1298.6 6393.92,1298.24C6395.03,1295.7 6397.06,1293.66 6399.6,1292.55C6399.97,1292.39 6400.2,1292.03 6400.2,1291.63C6400.2,1291.24 6399.97,1290.88 6399.6,1290.72C6397.06,1289.61 6395.03,1287.57 6393.92,1285.03ZM6371.92,1307.03C6371.76,1306.67 6371.4,1306.43 6371,1306.43C6370.6,1306.43 6370.24,1306.67 6370.08,1307.03C6368.97,1309.57 6366.94,1311.61 6364.4,1312.72C6364.03,1312.88 6363.8,1313.24 6363.8,1313.63C6363.8,1314.03 6364.03,1314.39 6364.4,1314.55C6366.94,1315.66 6368.97,1317.7 6370.08,1320.24C6370.24,1320.6 6370.6,1320.84 6371,1320.84C6371.4,1320.84 6371.76,1320.6 6371.92,1320.24C6373.03,1317.7 6375.06,1315.66 6377.6,1314.55C6377.97,1314.39 6378.2,1314.03 6378.2,1313.63C6378.2,1313.24 6377.97,1312.88 6377.6,1312.72C6375.06,1311.61 6373.03,1309.57 6371.92,1307.03ZM6393.92,1307.03C6393.76,1306.67 6393.4,1306.43 6393,1306.43C6392.6,1306.43 6392.24,1306.67 6392.08,1307.03C6390.97,1309.57 6388.94,1311.61 6386.4,1312.72C6386.03,1312.88 6385.8,1313.24 6385.8,1313.63C6385.8,1314.03 6386.03,1314.39 6386.4,1314.55C6388.94,1315.66 6390.97,1317.7 6392.08,1320.24C6392.24,1320.6 6392.6,1320.84 6393,1320.84C6393.4,1320.84 6393.76,1320.6 6393.92,1320.24C6395.03,1317.7 6397.06,1315.66 6399.6,1314.55C6399.97,1314.39 6400.2,1314.03 6400.2,1313.63C6400.2,1313.24 6399.97,1312.88 6399.6,1312.72C6397.06,1311.61 6395.03,1309.57 6393.92,1307.03Z" style="fill:rgb(77,124,15);"/>
                </g>
                <g id="Bar" transform="matrix(1.1855,0,0,1.73033,-6737.81,-2783.33)">
                    <path d="M6415.92,1255.03C6415.76,1254.67 6415.4,1254.43 6415,1254.43C6414.6,1254.43 6414.24,1254.67 6414.08,1255.03C6412.39,1258.92 6408.51,1261.63 6404,1261.63C6399.49,1261.63 6395.61,1258.92 6393.92,1255.03C6393.76,1254.67 6393.4,1254.43 6393,1254.43C6392.6,1254.43 6392.24,1254.67 6392.08,1255.03C6390.39,1258.92 6386.51,1261.63 6382,1261.63C6377.49,1261.63 6373.61,1258.92 6371.92,1255.03C6371.76,1254.67 6371.4,1254.43 6371,1254.43C6370.6,1254.43 6370.24,1254.67 6370.08,1255.03C6368.39,1258.92 6364.51,1261.63 6360,1261.63C6353.93,1261.63 6349,1256.71 6349,1250.63C6349,1244.56 6353.93,1239.63 6360,1239.63C6364.51,1239.63 6368.39,1242.35 6370.08,1246.24C6370.24,1246.6 6370.6,1246.84 6371,1246.84C6371.4,1246.84 6371.76,1246.6 6371.92,1246.24C6373.61,1242.35 6377.49,1239.63 6382,1239.63C6386.51,1239.63 6390.39,1242.35 6392.08,1246.24C6392.24,1246.6 6392.6,1246.84 6393,1246.84C6393.4,1246.84 6393.76,1246.6 6393.92,1246.24C6395.61,1242.35 6399.49,1239.63 6404,1239.63C6408.51,1239.63 6412.39,1242.35 6414.08,1246.24C6414.24,1246.6 6414.6,1246.84 6415,1246.84C6415.4,1246.84 6415.76,1246.6 6415.92,1246.24C6417.61,1242.35 6421.49,1239.63 6426,1239.63C6432.07,1239.63 6437,1244.56 6437,1250.63C6437,1256.71 6432.07,1261.63 6426,1261.63C6421.49,1261.63 6417.61,1258.92 6415.92,1255.03Z" style="fill:rgb(8,145,178);"/>
                </g>
            </g>
        </g>
    </g>
</svg>
