<svg xmlns="http://www.w3.org/2000/svg" xml:space="preserve" style="fill-rule:evenodd;clip-rule:evenodd;stroke-linejoin:round;stroke-miterlimit:2" viewBox="0 0 158 24"><style>.text {fill: #14122d;}@media (prefers-color-scheme: dark) {.text { fill: white; }}</style><path d="M0 0h157.734v23.04H0z" style="fill:none"/><clipPath id="a"><path d="M0 0h157.734v23.04H0z"/></clipPath><g clip-path="url(#a)"><path d="M36.422 17.985h-6.439V4.694h6.496q1.685 0 2.583.842.898.824.898 2.265a3.27 3.27 0 0 1-.767 2.134 4.5 4.5 0 0 1-1.039.939q.785.338 1.282.915.824.954.824 2.433 0 1.741-.973 2.752-.974 1.011-2.865 1.011M32.997 6.959v3.444h3.035q.38-.346.615-.786.28-.524.281-1.123 0-.693-.356-1.105-.336-.43-.936-.43zm0 5.316v3.37h2.845q.674 0 1.011-.412.356-.43.356-1.235 0-.825-.356-1.273a1.15 1.15 0 0 0-.773-.45zm12.801 1.273v4.437h-3.014V4.694h5.934q2.041 0 3.089 1.011 1.067 1.011 1.067 2.808 0 1.516-.805 2.658a7.1 7.1 0 0 1-1.362 1.429l2.261 4.674v.711H50.01l-2.354-4.437zm0-6.477v4.324h2.825q.535-.388.844-.973.375-.674.375-1.535 0-.88-.412-1.348-.393-.468-1.142-.468zm25.426 10.914h-2.303L67.218 5.499v-.805h2.939l.971 7.612 2.118-5.516h1.216l2.085 5.411 1.004-7.507h2.902v.805l-1.685 12.486h-2.359l-2.527-6.122-.047-.15-.047.15zm30.691 0h-8.219V4.694h8.219v2.658H96.71v2.92h4.774v2.116H96.71v2.939h5.205zm5.604-4.437v4.437h-3.014V4.694h5.934q2.041 0 3.089 1.011 1.067 1.011 1.067 2.808 0 1.516-.805 2.658a7.1 7.1 0 0 1-1.362 1.429l2.261 4.674v.711h-2.958l-2.354-4.437zm0-6.477v4.324h2.825q.535-.388.844-.973.375-.674.375-1.535 0-.88-.412-1.348-.393-.468-1.142-.468zm12.129.356h-3.295V4.694h9.566v2.733h-3.257v10.558h-3.014zm11.604 6.121v4.437h-3.014V4.694h5.935q2.04 0 3.089 1.011 1.067 1.011 1.067 2.808 0 1.516-.805 2.658a7.1 7.1 0 0 1-1.363 1.429l2.261 4.674v.711h-2.958l-2.354-4.437zm0-6.477v4.324h2.825q.535-.388.845-.973.374-.674.374-1.535 0-.88-.412-1.348-.393-.468-1.142-.468zm20.051 6.602-2.278 4.312h-2.826v-.805l3.646-5.977-3.44-5.704v-.805h2.957l2.528 4.136 2.246-4.136h2.789v.805l-3.545 5.876 3.545 5.805v.805h-2.976zm-91.074 4.499q-1.76 0-2.957-.674-1.18-.674-1.797-2.171-.618-1.498-.618-3.969 0-2.49.618-3.987.617-1.516 1.797-2.191 1.197-.673 2.957-.673t2.921.673q1.179.675 1.797 2.191.636 1.497.636 3.987 0 2.453-.617 3.95-.618 1.497-1.816 2.19-1.18.674-2.921.674m0-2.396q.75 0 1.255-.356.505-.373.786-1.329.3-.973.299-2.733 0-1.741-.299-2.714-.28-.992-.786-1.367-.505-.393-1.255-.374-.786.018-1.31.393-.505.356-.786 1.329-.262.973-.262 2.733t.281 2.733.786 1.329q.524.356 1.291.356m25.958 2.396q-1.105 0-2.134-.15a15 15 0 0 1-1.984-.393l.505-2.246q.824.205 1.666.337.861.112 1.666.112 1.292 0 1.835-.356.561-.373.561-1.104 0-.262-.112-.505a1.3 1.3 0 0 0-.356-.45 3 3 0 0 0-.561-.393q-.019-.018-.038-.019h-.037l-2.546-1.441a1 1 0 0 0-.131-.075.5.5 0 0 0-.112-.056q-1.086-.618-1.704-1.348-.618-.749-.618-1.947 0-1.104.599-1.909.618-.824 1.779-1.273 1.179-.45 2.827-.449.954 0 1.909.112.974.112 1.853.337l-.505 2.246a15 15 0 0 0-1.498-.262 12 12 0 0 0-1.422-.093q-.806 0-1.367.149-.542.131-.824.45a1.1 1.1 0 0 0-.262.748q0 .393.169.656.187.243.617.486.02 0 .019.019.019.018.038.019l2.695 1.404q.899.43 1.479.973.58.525.88 1.198.318.655.318 1.479 0 1.797-1.348 2.771-1.347.973-3.856.973m54.78-.187V4.694h3.014v13.291z" class="text"/><path d="M19.536 12.26a.24.24 0 0 0 0 .44 2.642 2.642 0 0 1 0 4.84.24.24 0 0 0 0 .44 2.641 2.641 0 1 1-3.476 3.476.24.24 0 0 0-.44 0 2.642 2.642 0 0 1-4.84 0 .24.24 0 0 0-.44 0 2.642 2.642 0 0 1-4.84 0 .24.24 0 0 0-.44 0 2.641 2.641 0 1 1-3.476-3.476.24.24 0 0 0 0-.44 2.642 2.642 0 0 1 0-4.84.24.24 0 0 0 0-.44A2.641 2.641 0 1 1 5.06 8.784a.24.24 0 0 0 .44 0 2.642 2.642 0 0 1 4.84 0 .24.24 0 0 0 .44 0 2.642 2.642 0 0 1 4.84 0 .24.24 0 0 0 .44 0 2.641 2.641 0 1 1 3.476 3.476M5.5 10.896a.24.24 0 0 0-.44 0 2.65 2.65 0 0 1-1.364 1.364.24.24 0 0 0 0 .44 2.65 2.65 0 0 1 1.364 1.364.24.24 0 0 0 .44 0A2.65 2.65 0 0 1 6.864 12.7a.24.24 0 0 0 0-.44A2.65 2.65 0 0 1 5.5 10.896m10.56 5.28a.24.24 0 0 0-.44 0 2.65 2.65 0 0 1-1.364 1.364.24.24 0 0 0 0 .44 2.65 2.65 0 0 1 1.364 1.364.24.24 0 0 0 .44 0 2.65 2.65 0 0 1 1.364-1.364.24.24 0 0 0 0-.44 2.65 2.65 0 0 1-1.364-1.364m0-5.28a.24.24 0 0 0-.44 0 2.65 2.65 0 0 1-1.364 1.364.24.24 0 0 0 0 .44 2.65 2.65 0 0 1 1.364 1.364.24.24 0 0 0 .44 0 2.65 2.65 0 0 1 1.364-1.364.24.24 0 0 0 0-.44 2.65 2.65 0 0 1-1.364-1.364m-5.28 0a.24.24 0 0 0-.44 0 2.65 2.65 0 0 1-1.364 1.364.24.24 0 0 0 0 .44 2.65 2.65 0 0 1 1.364 1.364.24.24 0 0 0 .44 0 2.65 2.65 0 0 1 1.364-1.364.24.24 0 0 0 0-.44 2.65 2.65 0 0 1-1.364-1.364m-5.28 5.28a.24.24 0 0 0-.44 0 2.65 2.65 0 0 1-1.364 1.364.24.24 0 0 0 0 .44 2.65 2.65 0 0 1 1.364 1.364.24.24 0 0 0 .44 0 2.65 2.65 0 0 1 1.364-1.364.24.24 0 0 0 0-.44A2.65 2.65 0 0 1 5.5 16.176m5.28 0a.24.24 0 0 0-.44 0 2.65 2.65 0 0 1-1.364 1.364.24.24 0 0 0 0 .44 2.65 2.65 0 0 1 1.364 1.364.24.24 0 0 0 .44 0 2.65 2.65 0 0 1 1.364-1.364.24.24 0 0 0 0-.44 2.65 2.65 0 0 1-1.364-1.364" style="fill:#4d7c0f"/><path d="M16.06 3.696a.24.24 0 0 0-.44 0 2.642 2.642 0 0 1-4.84 0 .24.24 0 0 0-.44 0 2.642 2.642 0 0 1-4.84 0 .24.24 0 0 0-.44 0A2.641 2.641 0 0 1 0 2.64a2.641 2.641 0 0 1 5.06-1.056.24.24 0 0 0 .44 0 2.642 2.642 0 0 1 4.84 0 .24.24 0 0 0 .44 0 2.642 2.642 0 0 1 4.84 0 .24.24 0 0 0 .44 0 2.641 2.641 0 0 1 5.06 1.056 2.641 2.641 0 0 1-5.06 1.056" style="fill:#0891b2"/></g></svg>
