<?xml version="1.0" encoding="UTF-8" standalone="no"?>
<!DOCTYPE svg PUBLIC "-//W3C//DTD SVG 1.1//EN" "http://www.w3.org/Graphics/SVG/1.1/DTD/svg11.dtd">
<svg xmlns="http://www.w3.org/2000/svg" xml:space="preserve" fill-rule="evenodd" stroke-linejoin="round" stroke-miterlimit="2" clip-rule="evenodd" viewBox="0 0 157 24">
  <path fill="none" d="M0 0h156.23v23.04H0z"/>
  <clipPath id="a">
    <path d="M0 0h156.23v23.04H0z"/>
  </clipPath>
  <style>
    .text {fill: #14122d;}
    @media (prefers-color-scheme: dark) {.text { fill: white; }}
  </style>
  <g clip-path="url(#a)">
    <path class="text" d="M35.22 18h-6.44V4.7h6.5c1.12 0 1.98.29 2.58.85.6.55.9 1.3.9 2.27 0 .8-.25 1.5-.77 2.13-.28.35-.63.67-1.04.94.53.22.95.53 1.29.91.55.64.82 1.45.82 2.44a3.8 3.8 0 0 1-.97 2.75c-.65.67-1.6 1.01-2.87 1.01ZM31.8 6.97v3.45h3.03c.26-.23.46-.5.62-.79.18-.35.28-.72.28-1.12 0-.46-.12-.83-.36-1.1a1.12 1.12 0 0 0-.93-.44H31.8Zm0 5.32v3.37h2.84c.45 0 .79-.14 1.01-.41.24-.29.36-.7.36-1.24a2 2 0 0 0-.36-1.27c-.19-.25-.44-.4-.77-.45H31.8Zm12.8 1.27V18h-3.02V4.7h5.94c1.36 0 2.39.35 3.09 1.02a3.68 3.68 0 0 1 1.06 2.8 4.5 4.5 0 0 1-.8 2.67c-.35.5-.8.97-1.36 1.42l2.26 4.68V18H48.8l-2.35-4.44H44.6Zm0-6.47v4.32h2.82c.36-.26.64-.58.85-.97.25-.45.37-.96.37-1.54 0-.58-.14-1.03-.41-1.35-.26-.3-.64-.46-1.14-.46h-2.5ZM70.02 18h-2.3l-1.7-12.49v-.8h2.94l.97 7.61 2.12-5.52h1.21l2.09 5.42 1-7.51h2.9v.8L77.57 18H75.2l-2.53-6.12-.05-.15-.04.15L70.02 18Zm30.7 0H92.5V4.7h8.22v2.67H95.5v2.92h4.77v2.11h-4.77v2.94h5.2V18Zm5.6-4.44V18h-3.01V4.7h5.93c1.36 0 2.39.35 3.09 1.02a3.68 3.68 0 0 1 1.07 2.8 4.5 4.5 0 0 1-.81 2.67c-.35.5-.8.97-1.36 1.42l2.26 4.68V18h-2.96l-2.35-4.44h-1.86Zm0-6.47v4.32h2.82c.36-.26.64-.58.85-.97.25-.45.37-.96.37-1.54 0-.58-.13-1.03-.4-1.35-.27-.3-.65-.46-1.15-.46h-2.5Zm12.13.35h-3.3V4.71h9.57v2.73h-3.26V18h-3.01V7.44Zm11.6 6.12V18h-3.01V4.7h5.93c1.36 0 2.4.35 3.1 1.02a3.68 3.68 0 0 1 1.06 2.8 4.5 4.5 0 0 1-.8 2.67c-.36.5-.8.97-1.37 1.42l2.26 4.68V18h-2.96l-2.35-4.44h-1.86Zm0-6.47v4.32h2.83a3.11 3.11 0 0 0 1.22-2.5c0-.6-.14-1.04-.42-1.36-.26-.3-.64-.46-1.14-.46h-2.49Zm20.05 6.6L147.83 18H145v-.8l3.65-5.98-3.44-5.7V4.7h2.95l2.53 4.14 2.25-4.14h2.79v.8l-3.55 5.88 3.54 5.8V18h-2.97l-2.65-4.31Zm-91.07 4.5a5.95 5.95 0 0 1-2.96-.68 4.25 4.25 0 0 1-1.8-2.17c-.4-1-.61-2.32-.61-3.97 0-1.66.2-2.99.62-3.98a4.24 4.24 0 0 1 1.8-2.2c.79-.44 1.78-.67 2.95-.67 1.17 0 2.15.23 2.92.68a4.25 4.25 0 0 1 1.8 2.19c.42 1 .63 2.32.63 3.98 0 1.64-.2 2.96-.61 3.95a4.32 4.32 0 0 1-1.82 2.2 5.8 5.8 0 0 1-2.92.67Zm0-2.4c.5 0 .92-.12 1.25-.36.34-.24.6-.69.79-1.32.2-.65.3-1.56.3-2.74 0-1.16-.1-2.06-.3-2.71-.19-.66-.45-1.12-.79-1.37a1.9 1.9 0 0 0-1.25-.37c-.52.01-.96.14-1.31.4-.34.23-.6.67-.79 1.32-.17.65-.26 1.56-.26 2.73 0 1.18.1 2.09.28 2.74.19.64.45 1.09.79 1.32.35.24.78.36 1.29.36Zm25.96 2.4c-.74 0-1.45-.05-2.14-.15-.67-.09-1.33-.22-1.98-.4l.5-2.24a12.87 12.87 0 0 0 3.33.45c.87 0 1.48-.12 1.84-.36.37-.25.56-.62.56-1.1 0-.18-.03-.35-.11-.5-.07-.17-.2-.32-.36-.46a2.93 2.93 0 0 0-.6-.41H86l-2.55-1.44a1.17 1.17 0 0 0-.13-.08 6.25 6.25 0 0 1-1.82-1.4 2.96 2.96 0 0 1-.61-1.95c0-.73.2-1.37.6-1.9.4-.56 1-.98 1.78-1.28.78-.3 1.72-.45 2.82-.45a16.3 16.3 0 0 1 3.76.45l-.5 2.25a14.67 14.67 0 0 0-2.92-.36c-.54 0-1 .05-1.37.15-.36.09-.63.24-.82.45-.18.2-.26.45-.26.75 0 .26.05.48.17.65a2.04 2.04 0 0 0 .63.51l.04.02 2.7 1.4c.6.29 1.09.61 1.47.98a3.56 3.56 0 0 1 1.2 2.67c0 1.2-.45 2.12-1.35 2.77-.9.65-2.18.98-3.85.98Zm54.78-.19V4.7h3.01V18h-3.01Z"/>
    <path fill="#4d7c0f" d="M19.54 12.26a.24.24 0 0 0 0 .44 2.64 2.64 0 0 1 0 4.84.24.24 0 0 0 0 .44 2.64 2.64 0 1 1-3.48 3.48.24.24 0 0 0-.44 0 2.64 2.64 0 0 1-4.84 0 .24.24 0 0 0-.44 0 2.64 2.64 0 0 1-4.84 0 .24.24 0 0 0-.44 0 2.64 2.64 0 1 1-3.48-3.48.24.24 0 0 0 0-.44 2.64 2.64 0 0 1 0-4.84.24.24 0 0 0 0-.44 2.64 2.64 0 1 1 3.48-3.48.24.24 0 0 0 .44 0 2.64 2.64 0 0 1 4.84 0 .24.24 0 0 0 .44 0 2.64 2.64 0 0 1 4.84 0 .24.24 0 0 0 .44 0 2.64 2.64 0 1 1 3.48 3.48ZM5.5 10.9a.24.24 0 0 0-.44 0c-.27.6-.75 1.1-1.36 1.36a.24.24 0 0 0 0 .44c.6.27 1.1.76 1.36 1.36a.24.24 0 0 0 .44 0c.27-.6.76-1.1 1.36-1.36a.24.24 0 0 0 0-.44c-.6-.27-1.1-.76-1.36-1.36Zm10.56 5.28a.24.24 0 0 0-.44 0c-.27.6-.75 1.1-1.36 1.36a.24.24 0 0 0 0 .44c.6.27 1.1.75 1.36 1.36a.24.24 0 0 0 .44 0c.27-.6.76-1.1 1.36-1.36a.24.24 0 0 0 0-.44c-.6-.27-1.1-.76-1.36-1.36Zm0-5.28a.24.24 0 0 0-.44 0c-.27.6-.75 1.1-1.36 1.36a.24.24 0 0 0 0 .44c.6.27 1.1.76 1.36 1.36a.24.24 0 0 0 .44 0c.27-.6.76-1.1 1.36-1.36a.24.24 0 0 0 0-.44c-.6-.27-1.1-.76-1.36-1.36Zm-5.28 0a.24.24 0 0 0-.44 0c-.27.6-.76 1.1-1.36 1.36a.24.24 0 0 0 0 .44c.6.27 1.1.76 1.36 1.36a.24.24 0 0 0 .44 0c.27-.6.76-1.1 1.36-1.36a.24.24 0 0 0 0-.44c-.6-.27-1.1-.76-1.36-1.36ZM5.5 16.18a.24.24 0 0 0-.44 0c-.27.6-.75 1.1-1.36 1.36a.24.24 0 0 0 0 .44c.6.27 1.1.75 1.36 1.36a.24.24 0 0 0 .44 0c.27-.6.76-1.1 1.36-1.36a.24.24 0 0 0 0-.44c-.6-.27-1.1-.76-1.36-1.36Zm5.28 0a.24.24 0 0 0-.44 0c-.27.6-.76 1.1-1.36 1.36a.24.24 0 0 0 0 .44c.6.27 1.1.75 1.36 1.36a.24.24 0 0 0 .44 0c.27-.6.76-1.1 1.36-1.36a.24.24 0 0 0 0-.44c-.6-.27-1.1-.76-1.36-1.36Z"/>
    <path fill="#0891b2" d="M16.06 3.7a.24.24 0 0 0-.44 0 2.64 2.64 0 0 1-4.84 0 .24.24 0 0 0-.44 0 2.64 2.64 0 0 1-4.84 0 .24.24 0 0 0-.44 0 2.64 2.64 0 1 1 0-2.12.24.24 0 0 0 .44 0 2.64 2.64 0 0 1 4.84 0 .24.24 0 0 0 .44 0 2.64 2.64 0 0 1 4.84 0 .24.24 0 0 0 .44 0 2.64 2.64 0 1 1 0 2.12Z"/>
  </g>
</svg>
