<svg xmlns="http://www.w3.org/2000/svg" xml:space="preserve" viewBox="0 0 658 96"><style>.text {fill: #001219;}@media (prefers-color-scheme: dark) {.text { fill: white; }}</style><clipPath id="a"><path d="M0 0h657.227v96H0z"/></clipPath><g clip-path="url(#a)"><path d="M151.76 74.937h-26.832v-55.38h27.066q7.02 0 10.764 3.51 3.744 3.432 3.744 9.438 0 4.992-3.198 8.892-1.764 2.206-4.327 3.912 3.268 1.407 5.341 3.81 3.432 3.978 3.432 10.14 0 7.254-4.056 11.466t-11.934 4.212m-14.274-45.942v14.352h12.648a12.3 12.3 0 0 0 2.562-3.276 9.76 9.76 0 0 0 1.17-4.68q0-2.886-1.482-4.602-1.404-1.794-3.9-1.794zm0 22.152v14.04h11.856q2.808 0 4.212-1.716 1.482-1.794 1.482-5.148 0-3.432-1.482-5.304-1.185-1.56-3.22-1.872zm53.339 5.304v18.486h-12.558v-55.38h24.726q8.502 0 12.87 4.212 4.446 4.212 4.446 11.7 0 6.318-3.354 11.076-2.181 3.115-5.676 5.955l9.42 19.473v2.964h-12.324l-9.809-18.486zm0-26.988v18.018h11.769a11.7 11.7 0 0 0 3.519-4.056q1.56-2.808 1.56-6.396 0-3.666-1.716-5.616-1.638-1.95-4.758-1.95zm105.941 45.474h-9.594l-7.098-52.026v-3.354h12.246l4.046 31.719 8.824-22.983h5.07l8.686 22.545 4.184-31.281h12.09v3.354l-7.02 52.026h-9.828l-10.53-25.506-.195-.626-.195.626zm127.878 0h-34.242v-55.38h34.242v11.076H402.96v12.168h19.89v8.814h-19.89v12.246h21.684zm23.352-18.486v18.486h-12.558v-55.38h24.726q8.502 0 12.87 4.212 4.446 4.212 4.446 11.7 0 6.318-3.354 11.076-2.181 3.115-5.676 5.955l9.42 19.473v2.964h-12.324l-9.809-18.486zm0-26.988v18.018h11.769a11.7 11.7 0 0 0 3.519-4.056q1.56-2.808 1.56-6.396 0-3.666-1.716-5.616-1.638-1.95-4.758-1.95zm50.538 1.482h-13.728V19.557h39.858v11.388h-13.572v43.992h-12.558zm48.351 25.506v18.486h-12.558v-55.38h24.726q8.502 0 12.87 4.212 4.446 4.212 4.446 11.7 0 6.318-3.354 11.076-2.181 3.115-5.676 5.955l9.42 19.473v2.964h-12.324l-9.809-18.486zm0-26.988v18.018h11.769a11.7 11.7 0 0 0 3.519-4.056q1.56-2.808 1.56-6.396 0-3.666-1.716-5.616-1.638-1.95-4.758-1.95zM630.43 56.97l-9.491 17.967h-11.778v-3.354l15.193-24.905-14.335-23.767v-3.354h12.324l10.531 17.233 9.359-17.233h11.622v3.354l-14.773 24.485 14.773 24.187v3.354h-12.402zM250.956 75.717q-7.332 0-12.324-2.808-4.914-2.808-7.488-9.048t-2.574-16.536q0-10.374 2.574-16.614 2.574-6.318 7.488-9.126 4.992-2.808 12.324-2.808t12.168 2.808q4.915 2.808 7.489 9.126 2.65 6.24 2.651 16.614 0 10.218-2.574 16.458-2.572 6.24-7.566 9.126-4.913 2.808-12.168 2.808m0-9.984q3.12 0 5.226-1.482 2.106-1.56 3.276-5.538 1.248-4.056 1.248-11.388 0-7.254-1.248-11.31-1.17-4.134-3.276-5.694-2.106-1.638-5.226-1.56-3.276.078-5.46 1.638-2.106 1.482-3.276 5.538-1.092 4.056-1.092 11.388t1.17 11.388 3.276 5.538q2.184 1.482 5.382 1.482m108.157 9.984q-4.602 0-8.892-.624a63 63 0 0 1-8.268-1.638l2.106-9.36a78 78 0 0 0 6.942 1.404q3.588.468 6.942.468 5.382 0 7.644-1.482 2.34-1.56 2.34-4.602a5 5 0 0 0-.468-2.106q-.468-1.014-1.482-1.872-.936-.858-2.34-1.638-.078-.078-.156-.078h-.156l-10.608-6.006a5 5 0 0 0-.546-.312 2 2 0 0 0-.468-.234q-4.524-2.574-7.098-5.616-2.574-3.12-2.574-8.112 0-4.602 2.496-7.956 2.574-3.432 7.41-5.304 4.914-1.872 11.778-1.872 3.978 0 7.956.468 4.056.468 7.722 1.404l-2.106 9.36a60 60 0 0 0-6.24-1.092q-3.12-.39-5.928-.39-3.354 0-5.694.624-2.262.546-3.432 1.872-1.092 1.248-1.092 3.12 0 1.638.702 2.73.78 1.014 2.574 2.028.078 0 .078.078.078.078.156.078l11.232 5.85q3.744 1.794 6.162 4.056 2.418 2.184 3.666 4.992 1.326 2.73 1.326 6.162 0 7.488-5.616 11.544t-16.068 4.056m228.248-.78v-55.38h12.558v55.38z" class="text"/><path d="M81.399 51.084a1 1 0 0 0 0 1.832C85.283 54.615 88 58.493 88 63s-2.717 8.385-6.601 10.084a1 1 0 0 0 0 1.832C85.283 76.615 88 80.493 88 85c0 6.071-4.929 11-11 11-4.507 0-8.385-2.717-10.084-6.601a1 1 0 0 0-1.832 0C63.385 93.283 59.507 96 55 96s-8.385-2.717-10.084-6.601a1 1 0 0 0-1.832 0C41.385 93.283 37.507 96 33 96s-8.385-2.717-10.084-6.601a1 1 0 0 0-1.832 0C19.385 93.283 15.507 96 11 96 4.929 96 0 91.071 0 85c0-4.507 2.717-8.385 6.601-10.084a1 1 0 0 0 0-1.832C2.717 71.385 0 67.507 0 63s2.717-8.385 6.601-10.084a1 1 0 0 0 0-1.832C2.717 49.385 0 45.507 0 41c0-6.071 4.929-11 11-11 4.507 0 8.385 2.717 10.084 6.601a1 1 0 0 0 1.832 0C24.615 32.717 28.493 30 33 30s8.385 2.717 10.084 6.601a1 1 0 0 0 1.832 0C46.615 32.717 50.493 30 55 30s8.385 2.717 10.084 6.601a1 1 0 0 0 1.832 0C68.615 32.717 72.493 30 77 30c6.071 0 11 4.929 11 11 0 4.507-2.717 8.385-6.601 10.084m-58.483-5.685a1 1 0 0 0-1.832 0 11.06 11.06 0 0 1-5.685 5.685 1 1 0 0 0 0 1.832 11.06 11.06 0 0 1 5.685 5.685 1 1 0 0 0 1.832 0 11.06 11.06 0 0 1 5.685-5.685 1 1 0 0 0 0-1.832 11.06 11.06 0 0 1-5.685-5.685m44 22a1 1 0 0 0-1.832 0 11.06 11.06 0 0 1-5.685 5.685 1 1 0 0 0 0 1.832 11.06 11.06 0 0 1 5.685 5.685 1 1 0 0 0 1.832 0 11.06 11.06 0 0 1 5.685-5.685 1 1 0 0 0 0-1.832 11.06 11.06 0 0 1-5.685-5.685m0-22a1 1 0 0 0-1.832 0 11.06 11.06 0 0 1-5.685 5.685 1 1 0 0 0 0 1.832 11.06 11.06 0 0 1 5.685 5.685 1 1 0 0 0 1.832 0 11.06 11.06 0 0 1 5.685-5.685 1 1 0 0 0 0-1.832 11.06 11.06 0 0 1-5.685-5.685m-22 0a1 1 0 0 0-1.832 0 11.06 11.06 0 0 1-5.685 5.685 1 1 0 0 0 0 1.832 11.06 11.06 0 0 1 5.685 5.685 1 1 0 0 0 1.832 0 11.06 11.06 0 0 1 5.685-5.685 1 1 0 0 0 0-1.832 11.06 11.06 0 0 1-5.685-5.685m-22 22a1 1 0 0 0-1.832 0 11.06 11.06 0 0 1-5.685 5.685 1 1 0 0 0 0 1.832 11.06 11.06 0 0 1 5.685 5.685 1 1 0 0 0 1.832 0 11.06 11.06 0 0 1 5.685-5.685 1 1 0 0 0 0-1.832 11.06 11.06 0 0 1-5.685-5.685m22 0a1 1 0 0 0-1.832 0 11.06 11.06 0 0 1-5.685 5.685 1 1 0 0 0 0 1.832 11.06 11.06 0 0 1 5.685 5.685 1 1 0 0 0 1.832 0 11.06 11.06 0 0 1 5.685-5.685 1 1 0 0 0 0-1.832 11.06 11.06 0 0 1-5.685-5.685" style="fill:#4d7c0f"/><path d="M66.916 15.399a1 1 0 0 0-1.832 0C63.385 19.283 59.507 22 55 22s-8.385-2.717-10.084-6.601a1 1 0 0 0-1.832 0C41.385 19.283 37.507 22 33 22s-8.385-2.717-10.084-6.601a1 1 0 0 0-1.832 0C19.385 19.283 15.507 22 11 22 4.929 22 0 17.071 0 11S4.929 0 11 0c4.507 0 8.385 2.717 10.084 6.601a1 1 0 0 0 1.832 0C24.615 2.717 28.493 0 33 0s8.385 2.717 10.084 6.601a1 1 0 0 0 1.832 0C46.615 2.717 50.493 0 55 0s8.385 2.717 10.084 6.601a1 1 0 0 0 1.832 0C68.615 2.717 72.493 0 77 0c6.071 0 11 4.929 11 11s-4.929 11-11 11c-4.507 0-8.385-2.717-10.084-6.601" style="fill:#088eaf"/></g></svg>
