<!DOCTYPE svg PUBLIC "-//W3C//DTD SVG 1.1//EN" "http://www.w3.org/Graphics/SVG/1.1/DTD/svg11.dtd">
<svg xmlns="http://www.w3.org/2000/svg" xml:space="preserve" fill-rule="evenodd" stroke-linejoin="round" stroke-miterlimit="2" clip-rule="evenodd" viewBox="0 0 8 8">
  <style>
    .b{fill:#0891b2;}.g{fill: #4d7c0f;}
    @media (prefers-color-scheme: dark) {
      .b{fill:#0AAED7;}.g{fill: #65A414;}
    }
  </style>
  <path fill="none" d="M0 0h7.68v7.68H0z"/>
  <path class="g" d="M6.83 4.09a.08.08 0 0 0-.05.07c0 .03.02.06.05.07a.88.88 0 0 1 0 1.62.08.08 0 0 0-.05.07c0 .03.02.06.05.07a.88.88 0 1 1-1.16 1.16.08.08 0 0 0-.07-.05.08.08 0 0 0-.07.05.88.88 0 0 1-1.62 0 .08.08 0 0 0-.07-.05.08.08 0 0 0-.07.05.88.88 0 0 1-1.62 0 .08.08 0 0 0-.07-.05.08.08 0 0 0-.07.05A.88.88 0 1 1 .85 6a.08.08 0 0 0 .05-.07.08.08 0 0 0-.05-.07.88.88 0 0 1 0-1.62.08.08 0 0 0 .05-.07.08.08 0 0 0-.05-.07A.88.88 0 1 1 2 2.93c0 .03.04.05.07.05.03 0 .06-.02.07-.05a.88.88 0 0 1 1.62 0c0 .03.04.05.07.05.03 0 .06-.02.07-.05a.88.88 0 0 1 1.62 0c0 .03.04.05.07.05.03 0 .06-.02.07-.05a.88.88 0 1 1 1.16 1.16Zm-4.68-.46a.08.08 0 0 0-.07-.05.08.08 0 0 0-.07.05.89.89 0 0 1-.46.46.08.08 0 0 0-.05.07c0 .03.02.06.05.07.2.1.37.26.46.46 0 .03.04.05.07.05.03 0 .06-.02.07-.05.1-.2.25-.37.46-.46a.08.08 0 0 0 .05-.07.08.08 0 0 0-.05-.07.89.89 0 0 1-.46-.46ZM5.67 5.4a.08.08 0 0 0-.07-.05.08.08 0 0 0-.07.05.89.89 0 0 1-.46.46.08.08 0 0 0-.05.07c0 .03.02.06.05.07.2.1.37.26.46.46 0 .03.04.05.07.05.03 0 .06-.02.07-.05.1-.2.26-.37.46-.46a.08.08 0 0 0 .05-.07.08.08 0 0 0-.05-.07.89.89 0 0 1-.46-.46Zm0-1.76a.08.08 0 0 0-.07-.05.08.08 0 0 0-.07.05.89.89 0 0 1-.46.46.08.08 0 0 0-.05.07c0 .03.02.06.05.07.2.1.37.26.46.46 0 .03.04.05.07.05.03 0 .06-.02.07-.05.1-.2.26-.37.46-.46a.08.08 0 0 0 .05-.07.08.08 0 0 0-.05-.07.89.89 0 0 1-.46-.46Zm-1.76 0a.08.08 0 0 0-.07-.05.08.08 0 0 0-.07.05.89.89 0 0 1-.46.46.08.08 0 0 0-.05.07c0 .03.02.06.05.07.2.1.37.26.46.46 0 .03.04.05.07.05.03 0 .06-.02.07-.05.1-.2.26-.37.46-.46a.08.08 0 0 0 .05-.07.08.08 0 0 0-.05-.07.89.89 0 0 1-.46-.46ZM2.15 5.4a.08.08 0 0 0-.07-.05.08.08 0 0 0-.07.05.89.89 0 0 1-.46.46.08.08 0 0 0-.05.07c0 .03.02.06.05.07.2.1.37.26.46.46 0 .03.04.05.07.05.03 0 .06-.02.07-.05.1-.2.26-.37.46-.46a.08.08 0 0 0 .05-.07.08.08 0 0 0-.05-.07.89.89 0 0 1-.46-.46Zm1.76 0a.08.08 0 0 0-.07-.05.08.08 0 0 0-.07.05.89.89 0 0 1-.46.46.08.08 0 0 0-.05.07c0 .03.02.06.05.07.2.1.37.26.46.46 0 .03.04.05.07.05.03 0 .06-.02.07-.05.1-.2.26-.37.46-.46a.08.08 0 0 0 .05-.07.08.08 0 0 0-.05-.07.89.89 0 0 1-.46-.46Z"/>
  <path class="b" d="M5.67 1.23a.08.08 0 0 0-.07-.05.08.08 0 0 0-.07.05.88.88 0 0 1-1.62 0 .08.08 0 0 0-.07-.05.08.08 0 0 0-.07.05.88.88 0 0 1-1.62 0 .08.08 0 0 0-.07-.05.08.08 0 0 0-.07.05.88.88 0 1 1 0-.7c0 .03.04.05.07.05.03 0 .06-.02.07-.05a.88.88 0 0 1 1.62 0c0 .03.04.05.07.05.03 0 .06-.02.07-.05a.88.88 0 0 1 1.62 0c0 .03.04.05.07.05.03 0 .06-.02.07-.05a.88.88 0 1 1 0 .7Z"/>
</svg>
