<svg xmlns="http://www.w3.org/2000/svg" xml:space="preserve" fill-rule="evenodd"
  stroke-linejoin="round" stroke-miterlimit="2" clip-rule="evenodd" viewBox="0 0 24 24">
  <path fill="none" d="M0 0h23.04v23.04H0z"/>
  <clipPath id="a">
    <path d="M0 0h23.04v23.04H0z"/>
  </clipPath>
  <g fill="#fff" clip-path="url(#a)">
    <path d="M20.5 12.26a.24.24 0 0 0 0 .44 2.64 2.64 0 0 1 0 4.84.24.24 0 0 0 0 .44 2.64 2.64 0 1 1-3.48 3.48.24.24 0 0 0-.44 0 2.64 2.64 0 0 1-4.84 0 .24.24 0 0 0-.44 0 2.64 2.64 0 0 1-4.84 0 .24.24 0 0 0-.44 0 2.64 2.64 0 1 1-3.48-3.48.24.24 0 0 0 0-.44 2.64 2.64 0 0 1 0-4.84.24.24 0 0 0 0-.44 2.64 2.64 0 1 1 3.48-3.48.24.24 0 0 0 .44 0 2.64 2.64 0 0 1 4.84 0 .24.24 0 0 0 .44 0 2.64 2.64 0 0 1 4.84 0 .24.24 0 0 0 .44 0 2.64 2.64 0 1 1 3.48 3.48ZM6.46 10.9a.24.24 0 0 0-.44 0 2.7 2.7 0 0 1-1.36 1.36.24.24 0 0 0 0 .44c.6.27 1.1.76 1.36 1.36a.24.24 0 0 0 .44 0c.27-.6.75-1.1 1.36-1.36a.24.24 0 0 0 0-.44 2.7 2.7 0 0 1-1.36-1.36Zm10.56 5.28a.24.24 0 0 0-.44 0c-.27.6-.75 1.1-1.36 1.36a.24.24 0 0 0 0 .44c.6.27 1.1.75 1.36 1.36a.24.24 0 0 0 .44 0c.27-.6.76-1.1 1.36-1.36a.24.24 0 0 0 0-.44 2.7 2.7 0 0 1-1.36-1.36Zm0-5.28a.24.24 0 0 0-.44 0c-.27.6-.75 1.1-1.36 1.36a.24.24 0 0 0 0 .44c.6.27 1.1.76 1.36 1.36a.24.24 0 0 0 .44 0c.27-.6.76-1.1 1.36-1.36a.24.24 0 0 0 0-.44 2.7 2.7 0 0 1-1.36-1.36Zm-5.28 0a.24.24 0 0 0-.44 0 2.7 2.7 0 0 1-1.36 1.36.24.24 0 0 0 0 .44c.6.27 1.1.76 1.36 1.36a.24.24 0 0 0 .44 0c.27-.6.75-1.1 1.36-1.36a.24.24 0 0 0 0-.44 2.7 2.7 0 0 1-1.36-1.36Zm-5.28 5.28a.24.24 0 0 0-.44 0 2.7 2.7 0 0 1-1.36 1.36.24.24 0 0 0 0 .44c.6.27 1.1.75 1.36 1.36a.24.24 0 0 0 .44 0c.27-.6.75-1.1 1.36-1.36a.24.24 0 0 0 0-.44 2.7 2.7 0 0 1-1.36-1.36Zm5.28 0a.24.24 0 0 0-.44 0 2.7 2.7 0 0 1-1.36 1.36.24.24 0 0 0 0 .44c.6.27 1.1.75 1.36 1.36a.24.24 0 0 0 .44 0c.27-.6.75-1.1 1.36-1.36a.24.24 0 0 0 0-.44 2.7 2.7 0 0 1-1.36-1.36ZM17.02 3.7a.24.24 0 0 0-.44 0 2.64 2.64 0 0 1-4.84 0 .24.24 0 0 0-.44 0 2.64 2.64 0 0 1-4.84 0 .24.24 0 0 0-.44 0 2.64 2.64 0 1 1 0-2.12.24.24 0 0 0 .44 0 2.64 2.64 0 0 1 4.84 0 .24.24 0 0 0 .44 0 2.64 2.64 0 0 1 4.84 0 .24.24 0 0 0 .44 0 2.64 2.64 0 1 1 0 2.12Z"/>
  </g>
</svg>
