<?xml version="1.0" encoding="UTF-8" standalone="no"?>
<!DOCTYPE svg PUBLIC "-//W3C//DTD SVG 1.1//EN" "http://www.w3.org/Graphics/SVG/1.1/DTD/svg11.dtd">
<svg xmlns="http://www.w3.org/2000/svg" xml:space="preserve" fill-rule="evenodd" stroke-linejoin="round" stroke-miterlimit="2" clip-rule="evenodd" viewBox="0 0 8 8">
  <path fill="none" d="M0 0h7.68v7.68H0z"/>
  <path fill="#4d7c0f" d="M6.832 4.087c-.029.012-.048.041-.048.073 0 .032.019.061.048.073.311.136.528.446.528.807 0 .361-.217.671-.528.807-.029.012-.048.041-.048.073 0 .032.019.061.048.073.311.136.528.446.528.807 0 .486-.394.88-.88.88-.361 0-.671-.217-.807-.528-.012-.029-.041-.048-.073-.048-.032 0-.061.019-.073.048-.136.311-.446.528-.807.528-.361 0-.671-.217-.807-.528-.012-.029-.041-.048-.073-.048-.032 0-.061.019-.073.048-.136.311-.446.528-.807.528-.361 0-.671-.217-.807-.528-.012-.029-.041-.048-.073-.048-.032 0-.061.019-.073.048-.136.311-.446.528-.807.528-.486 0-.88-.394-.88-.88 0-.361.217-.671.528-.807.029-.012.048-.041.048-.073 0-.032-.019-.061-.048-.073C.537 5.711.32 5.401.32 5.04c0-.361.217-.671.528-.807.029-.012.048-.041.048-.073 0-.032-.019-.061-.048-.073C.537 3.951.32 3.641.32 3.28c0-.486.394-.88.88-.88.361 0 .671.217.807.528.012.029.041.048.073.048.032 0 .061-.019.073-.048.136-.311.446-.528.807-.528.361 0 .671.217.807.528.012.029.041.048.073.048.032 0 .061-.019.073-.048.136-.311.446-.528.807-.528.361 0 .671.217.807.528.012.029.041.048.073.048.032 0 .061-.019.073-.048.136-.311.446-.528.807-.528.486 0 .88.394.88.88 0 .361-.217.671-.528.807Zm-4.679-.455c-.012-.029-.041-.048-.073-.048-.032 0-.061.019-.073.048-.089.203-.252.366-.455.455-.029.012-.048.041-.048.073 0 .032.019.061.048.073.203.089.366.252.455.455.012.029.041.048.073.048.032 0 .061-.019.073-.048.089-.203.252-.366.455-.455.029-.012.048-.041.048-.073 0-.032-.019-.061-.048-.073-.203-.089-.366-.252-.455-.455Zm3.52 1.76c-.012-.029-.041-.048-.073-.048-.032 0-.061.019-.073.048-.089.203-.252.366-.455.455-.029.012-.048.041-.048.073 0 .032.019.061.048.073.203.089.366.252.455.455.012.029.041.048.073.048.032 0 .061-.019.073-.048.089-.203.252-.366.455-.455.029-.012.048-.041.048-.073 0-.032-.019-.061-.048-.073-.203-.089-.366-.252-.455-.455Zm0-1.76c-.012-.029-.041-.048-.073-.048-.032 0-.061.019-.073.048-.089.203-.252.366-.455.455-.029.012-.048.041-.048.073 0 .032.019.061.048.073.203.089.366.252.455.455.012.029.041.048.073.048.032 0 .061-.019.073-.048.089-.203.252-.366.455-.455.029-.012.048-.041.048-.073 0-.032-.019-.061-.048-.073-.203-.089-.366-.252-.455-.455Zm-1.76 0c-.012-.029-.041-.048-.073-.048-.032 0-.061.019-.073.048-.089.203-.252.366-.455.455-.029.012-.048.041-.048.073 0 .032.019.061.048.073.203.089.366.252.455.455.012.029.041.048.073.048.032 0 .061-.019.073-.048.089-.203.252-.366.455-.455.029-.012.048-.041.048-.073 0-.032-.019-.061-.048-.073-.203-.089-.366-.252-.455-.455Zm-1.76 1.76c-.012-.029-.041-.048-.073-.048-.032 0-.061.019-.073.048-.089.203-.252.366-.455.455-.029.012-.048.041-.048.073 0 .032.019.061.048.073.203.089.366.252.455.455.012.029.041.048.073.048.032 0 .061-.019.073-.048.089-.203.252-.366.455-.455.029-.012.048-.041.048-.073 0-.032-.019-.061-.048-.073-.203-.089-.366-.252-.455-.455Zm1.76 0c-.012-.029-.041-.048-.073-.048-.032 0-.061.019-.073.048-.089.203-.252.366-.455.455-.029.012-.048.041-.048.073 0 .032.019.061.048.073.203.089.366.252.455.455.012.029.041.048.073.048.032 0 .061-.019.073-.048.089-.203.252-.366.455-.455.029-.012.048-.041.048-.073 0-.032-.019-.061-.048-.073-.203-.089-.366-.252-.455-.455Z"/>
  <path fill="#0891b2" d="M5.673 1.232c-.012-.029-.041-.048-.073-.048-.032 0-.061.019-.073.048-.136.311-.446.528-.807.528-.361 0-.671-.217-.807-.528-.012-.029-.041-.048-.073-.048-.032 0-.061.019-.073.048-.136.311-.446.528-.807.528-.361 0-.671-.217-.807-.528-.012-.029-.041-.048-.073-.048-.032 0-.061.019-.073.048-.136.311-.446.528-.807.528-.486 0-.88-.394-.88-.88S.714 0 1.2 0c.361 0 .671.217.807.528.012.029.041.048.073.048.032 0 .061-.019.073-.048C2.289.217 2.599 0 2.96 0c.361 0 .671.217.807.528.012.029.041.048.073.048.032 0 .061-.019.073-.048C4.049.217 4.359 0 4.72 0c.361 0 .671.217.807.528.012.029.041.048.073.048.032 0 .061-.019.073-.048C5.809.217 6.119 0 6.48 0c.486 0 .88.394.88.88s-.394.88-.88.88c-.361 0-.671-.217-.807-.528Z"/>
</svg>
