<?xml version="1.0" encoding="UTF-8" standalone="no"?><!DOCTYPE svg PUBLIC "-//W3C//DTD SVG 1.1//EN" "http://www.w3.org/Graphics/SVG/1.1/DTD/svg11.dtd"><svg width="100%" height="100%" viewBox="0 0 8 8" version="1.1" xmlns="http://www.w3.org/2000/svg" xmlns:xlink="http://www.w3.org/1999/xlink" xml:space="preserve" xmlns:serif="http://www.serif.com/" style="fill-rule:evenodd;clip-rule:evenodd;stroke-linejoin:round;stroke-miterlimit:2;"><rect id="favicon" x="0" y="0" width="7.68" height="7.68" style="fill:none;"/><g id="favicon1" serif:id="favicon"><path id="Page" d="M6.832,4.087c-0.029,0.012 -0.048,0.041 -0.048,0.073c0,0.032 0.019,0.061 0.048,0.073c0.311,0.136 0.528,0.446 0.528,0.807c-0,0.361 -0.217,0.671 -0.528,0.807c-0.029,0.012 -0.048,0.041 -0.048,0.073c0,0.032 0.019,0.061 0.048,0.073c0.311,0.136 0.528,0.446 0.528,0.807c-0,0.486 -0.394,0.88 -0.88,0.88c-0.361,-0 -0.671,-0.217 -0.807,-0.528c-0.012,-0.029 -0.041,-0.048 -0.073,-0.048c-0.032,0 -0.061,0.019 -0.073,0.048c-0.136,0.311 -0.446,0.528 -0.807,0.528c-0.361,-0 -0.671,-0.217 -0.807,-0.528c-0.012,-0.029 -0.041,-0.048 -0.073,-0.048c-0.032,0 -0.061,0.019 -0.073,0.048c-0.136,0.311 -0.446,0.528 -0.807,0.528c-0.361,-0 -0.671,-0.217 -0.807,-0.528c-0.012,-0.029 -0.041,-0.048 -0.073,-0.048c-0.032,0 -0.061,0.019 -0.073,0.048c-0.136,0.311 -0.446,0.528 -0.807,0.528c-0.486,-0 -0.88,-0.394 -0.88,-0.88c0,-0.361 0.217,-0.671 0.528,-0.807c0.029,-0.012 0.048,-0.041 0.048,-0.073c-0,-0.032 -0.019,-0.061 -0.048,-0.073c-0.311,-0.136 -0.528,-0.446 -0.528,-0.807c0,-0.361 0.217,-0.671 0.528,-0.807c0.029,-0.012 0.048,-0.041 0.048,-0.073c-0,-0.032 -0.019,-0.061 -0.048,-0.073c-0.311,-0.136 -0.528,-0.446 -0.528,-0.807c0,-0.486 0.394,-0.88 0.88,-0.88c0.361,-0 0.671,0.217 0.807,0.528c0.012,0.029 0.041,0.048 0.073,0.048c0.032,-0 0.061,-0.019 0.073,-0.048c0.136,-0.311 0.446,-0.528 0.807,-0.528c0.361,-0 0.671,0.217 0.807,0.528c0.012,0.029 0.041,0.048 0.073,0.048c0.032,-0 0.061,-0.019 0.073,-0.048c0.136,-0.311 0.446,-0.528 0.807,-0.528c0.361,-0 0.671,0.217 0.807,0.528c0.012,0.029 0.041,0.048 0.073,0.048c0.032,-0 0.061,-0.019 0.073,-0.048c0.136,-0.311 0.446,-0.528 0.807,-0.528c0.486,-0 0.88,0.394 0.88,0.88c-0,0.361 -0.217,0.671 -0.528,0.807Zm-4.679,-0.455c-0.012,-0.029 -0.041,-0.048 -0.073,-0.048c-0.032,0 -0.061,0.019 -0.073,0.048c-0.089,0.203 -0.252,0.366 -0.455,0.455c-0.029,0.012 -0.048,0.041 -0.048,0.073c0,0.032 0.019,0.061 0.048,0.073c0.203,0.089 0.366,0.252 0.455,0.455c0.012,0.029 0.041,0.048 0.073,0.048c0.032,-0 0.061,-0.019 0.073,-0.048c0.089,-0.203 0.252,-0.366 0.455,-0.455c0.029,-0.012 0.048,-0.041 0.048,-0.073c-0,-0.032 -0.019,-0.061 -0.048,-0.073c-0.203,-0.089 -0.366,-0.252 -0.455,-0.455Zm3.52,1.76c-0.012,-0.029 -0.041,-0.048 -0.073,-0.048c-0.032,0 -0.061,0.019 -0.073,0.048c-0.089,0.203 -0.252,0.366 -0.455,0.455c-0.029,0.012 -0.048,0.041 -0.048,0.073c0,0.032 0.019,0.061 0.048,0.073c0.203,0.089 0.366,0.252 0.455,0.455c0.012,0.029 0.041,0.048 0.073,0.048c0.032,-0 0.061,-0.019 0.073,-0.048c0.089,-0.203 0.252,-0.366 0.455,-0.455c0.029,-0.012 0.048,-0.041 0.048,-0.073c-0,-0.032 -0.019,-0.061 -0.048,-0.073c-0.203,-0.089 -0.366,-0.252 -0.455,-0.455Zm0,-1.76c-0.012,-0.029 -0.041,-0.048 -0.073,-0.048c-0.032,0 -0.061,0.019 -0.073,0.048c-0.089,0.203 -0.252,0.366 -0.455,0.455c-0.029,0.012 -0.048,0.041 -0.048,0.073c0,0.032 0.019,0.061 0.048,0.073c0.203,0.089 0.366,0.252 0.455,0.455c0.012,0.029 0.041,0.048 0.073,0.048c0.032,-0 0.061,-0.019 0.073,-0.048c0.089,-0.203 0.252,-0.366 0.455,-0.455c0.029,-0.012 0.048,-0.041 0.048,-0.073c-0,-0.032 -0.019,-0.061 -0.048,-0.073c-0.203,-0.089 -0.366,-0.252 -0.455,-0.455Zm-1.76,-0c-0.012,-0.029 -0.041,-0.048 -0.073,-0.048c-0.032,0 -0.061,0.019 -0.073,0.048c-0.089,0.203 -0.252,0.366 -0.455,0.455c-0.029,0.012 -0.048,0.041 -0.048,0.073c0,0.032 0.019,0.061 0.048,0.073c0.203,0.089 0.366,0.252 0.455,0.455c0.012,0.029 0.041,0.048 0.073,0.048c0.032,-0 0.061,-0.019 0.073,-0.048c0.089,-0.203 0.252,-0.366 0.455,-0.455c0.029,-0.012 0.048,-0.041 0.048,-0.073c-0,-0.032 -0.019,-0.061 -0.048,-0.073c-0.203,-0.089 -0.366,-0.252 -0.455,-0.455Zm-1.76,1.76c-0.012,-0.029 -0.041,-0.048 -0.073,-0.048c-0.032,0 -0.061,0.019 -0.073,0.048c-0.089,0.203 -0.252,0.366 -0.455,0.455c-0.029,0.012 -0.048,0.041 -0.048,0.073c0,0.032 0.019,0.061 0.048,0.073c0.203,0.089 0.366,0.252 0.455,0.455c0.012,0.029 0.041,0.048 0.073,0.048c0.032,-0 0.061,-0.019 0.073,-0.048c0.089,-0.203 0.252,-0.366 0.455,-0.455c0.029,-0.012 0.048,-0.041 0.048,-0.073c-0,-0.032 -0.019,-0.061 -0.048,-0.073c-0.203,-0.089 -0.366,-0.252 -0.455,-0.455Zm1.76,-0c-0.012,-0.029 -0.041,-0.048 -0.073,-0.048c-0.032,0 -0.061,0.019 -0.073,0.048c-0.089,0.203 -0.252,0.366 -0.455,0.455c-0.029,0.012 -0.048,0.041 -0.048,0.073c0,0.032 0.019,0.061 0.048,0.073c0.203,0.089 0.366,0.252 0.455,0.455c0.012,0.029 0.041,0.048 0.073,0.048c0.032,-0 0.061,-0.019 0.073,-0.048c0.089,-0.203 0.252,-0.366 0.455,-0.455c0.029,-0.012 0.048,-0.041 0.048,-0.073c-0,-0.032 -0.019,-0.061 -0.048,-0.073c-0.203,-0.089 -0.366,-0.252 -0.455,-0.455Z" style="fill:#4d7c0f;"/><path id="Bar" d="M5.673,1.232c-0.012,-0.029 -0.041,-0.048 -0.073,-0.048c-0.032,0 -0.061,0.019 -0.073,0.048c-0.136,0.311 -0.446,0.528 -0.807,0.528c-0.361,0 -0.671,-0.217 -0.807,-0.528c-0.012,-0.029 -0.041,-0.048 -0.073,-0.048c-0.032,0 -0.061,0.019 -0.073,0.048c-0.136,0.311 -0.446,0.528 -0.807,0.528c-0.361,0 -0.671,-0.217 -0.807,-0.528c-0.012,-0.029 -0.041,-0.048 -0.073,-0.048c-0.032,0 -0.061,0.019 -0.073,0.048c-0.136,0.311 -0.446,0.528 -0.807,0.528c-0.486,-0 -0.88,-0.394 -0.88,-0.88c0,-0.486 0.394,-0.88 0.88,-0.88c0.361,0 0.671,0.217 0.807,0.528c0.012,0.029 0.041,0.048 0.073,0.048c0.032,-0 0.061,-0.019 0.073,-0.048c0.136,-0.311 0.446,-0.528 0.807,-0.528c0.361,0 0.671,0.217 0.807,0.528c0.012,0.029 0.041,0.048 0.073,0.048c0.032,-0 0.061,-0.019 0.073,-0.048c0.136,-0.311 0.446,-0.528 0.807,-0.528c0.361,0 0.671,0.217 0.807,0.528c0.012,0.029 0.041,0.048 0.073,0.048c0.032,-0 0.061,-0.019 0.073,-0.048c0.136,-0.311 0.446,-0.528 0.807,-0.528c0.486,0 0.88,0.394 0.88,0.88c-0,0.486 -0.394,0.88 -0.88,0.88c-0.361,0 -0.671,-0.217 -0.807,-0.528Z" style="fill:#0891b2;"/></g></svg>